<svg xmlns="http://www.w3.org/2000/svg" width="101" height="96" viewBox="0 0 101 96" fill="currentcolor">
  <path d="M100.28 88.4c-1.38-1.29-5.01-4.27-8.88-4.27a6.69 6.69 0 0 0-5.13 2.51c-.94.95-1.62 1.64-3.05 1.64s-2.1-.69-3.04-1.64a27.3 27.3 0 0 0-.59-.58c-.34-5.69-.85-11.48-1.53-17.23a1.48 1.48 0 1 0-2.94.36c.6 5.04 1.06 10.1 1.4 15.1a6.58 6.58 0 0 0-1.47-.16 5.97 5.97 0 0 0-2.89.69c-.11-10.37-.64-33.08-2.98-48.92a272.7 272.7 0 0 1 5.1 26.8 1.49 1.49 0 0 0 1.46 1.3 1.42 1.42 0 0 0 .22-.02 1.5 1.5 0 0 0 1.25-1.7A300.18 300.18 0 0 0 74.3 45.3a3.36 3.36 0 0 0 2.44 1.12h.02a3.1 3.1 0 0 0 1.02-.18c1.14 2.06 2.48 3.25 4 3.55a3.81 3.81 0 0 0 1.78-.07l.04.07a6.86 6.86 0 0 0 5.63 3.92 3.08 3.08 0 0 0 2.36-.82l.05-.05a5.22 5.22 0 0 0 3.04 1 5.45 5.45 0 0 0 2.2-.48 2.22 2.22 0 0 0 1.2-1.36 2.26 2.26 0 0 0-.2-1.81C91.08 38.43 82.5 32.37 76.17 29.3a4.94 4.94 0 0 0-.03-.97A8.73 8.73 0 0 1 79 29.69a6.1 6.1 0 0 0 3.22 1.29c.1 0 .2 0 .3-.02a3.27 3.27 0 0 0 2.67-1.47 2.95 2.95 0 0 0 .35-.81c2.25.18 3.89-.27 4.9-1.36A3.58 3.58 0 0 0 91.2 26a6.3 6.3 0 0 0 6.06-2.41 2.95 2.95 0 0 0 .6-1.79 3.08 3.08 0 0 0-.06-.58 4.95 4.95 0 0 0 1.71-1.19 4.83 4.83 0 0 0 1.24-2.75 2.26 2.26 0 0 0-.48-1.68 2.2 2.2 0 0 0-1.54-.81c-13.92-1.03-23.48 3.15-28.68 6.42a6.97 6.97 0 0 1 1.46-1.56 4.7 4.7 0 0 0 1.83-2.53 2.92 2.92 0 0 0-.54-2.62 2.61 2.61 0 0 0-.35-.34 4.67 4.67 0 0 0 0-4 3.06 3.06 0 0 0-.66-.8 5.3 5.3 0 0 0-.51-5.15 2.54 2.54 0 0 0-1.57-1.04A4.01 4.01 0 0 0 67.87.33a2.22 2.22 0 0 0-1.9-.21 2.32 2.32 0 0 0-1.42 1.38c-3.28 8.74-3.12 15.9-2.14 20.9a41.13 41.13 0 0 0-9.23-.8 1.5 1.5 0 0 0 .03 3h.04a37.93 37.93 0 0 1 9.09.85 4.92 4.92 0 0 0-.06.94 4.82 4.82 0 0 0-.55.4 8.6 8.6 0 0 0-7.54 4.5 3.7 3.7 0 0 1-1.08 1.27 1 1 0 0 1-.46.06.89.89 0 0 1-.17-.41 1.45 1.45 0 0 0-2.28-1.12c-2.34 1.55-3.36 1.35-3.62 1.25a1 1 0 0 1-.53-.64 1.44 1.44 0 0 0-.92-1.12 1.46 1.46 0 0 0-1.46.28 6.96 6.96 0 0 1-.98.68 3.42 3.42 0 0 1-3.59.08v-.02a1.52 1.52 0 0 0 .24-1.86 1.47 1.47 0 0 0-1.73-.65 2.96 2.96 0 0 1-2.5-.03 47.24 47.24 0 0 1 12.28-3.9 1.5 1.5 0 0 0 1.22-1.72 1.48 1.48 0 0 0-1.7-1.24 50.57 50.57 0 0 0-14.06 4.62 2.22 2.22 0 0 0-1.16 1.43 2.27 2.27 0 0 0 .3 1.83 4.98 4.98 0 0 0 4.24 2.27 3.01 3.01 0 0 0 1.46 1.91 6.36 6.36 0 0 0 6.43-.09 3.69 3.69 0 0 0 1.31.94c1.34.56 2.98.35 4.9-.62a2.98 2.98 0 0 0 2.4 1.14 4.22 4.22 0 0 0 1.23-.2 5.2 5.2 0 0 0 2.68-2.47 5.89 5.89 0 0 1 3.42-2.88 4.94 4.94 0 0 0 .48 2.6c-4.3 5.85-9.2 15.53-9.58 29.63a2.24 2.24 0 0 0 .69 1.68 2.18 2.18 0 0 0 1.5.6h.2a5.28 5.28 0 0 0 4.33-3.02 3.08 3.08 0 0 0 2.53-.43 7 7 0 0 0 3.07-6.19v-.08a3.86 3.86 0 0 0 1.58-.81c1.2-1.01 1.8-2.72 1.82-5.08a3.15 3.15 0 0 0 .95-.32 538.81 538.81 0 0 1 1.59 38.65 3.21 3.21 0 0 1-2.36.96c-1.43 0-2.1-.68-3.04-1.63a6.69 6.69 0 0 0-5.14-2.52c-.2 0-.38.01-.56.03v-1.4a25.23 25.23 0 0 0-25.01-25.4h-.03a24.46 24.46 0 0 0-11.02 2.6 1.51 1.51 0 0 0-.68 2 1.47 1.47 0 0 0 1.98.7 21.56 21.56 0 0 1 9.72-2.3h.03a22.25 22.25 0 0 1 22.05 22.4v2.46a11.67 11.67 0 0 0-1.61 1.43c-.94.95-1.61 1.64-3.04 1.64a3.7 3.7 0 0 1-.65-.06v-5.71a16.95 16.95 0 0 0-16.77-16.77A16.95 16.95 0 0 0 16.33 82.5v5.45a6.36 6.36 0 0 1-1.58-1.32 7.29 7.29 0 0 0-3.72-2.36v-1.52a22.57 22.57 0 0 1 7.43-16.77 1.52 1.52 0 0 0 .13-2.12 1.47 1.47 0 0 0-2.1-.13 25.6 25.6 0 0 0-8.42 19.02v1.52c-3.26.62-6.15 3-7.34 4.11a2.34 2.34 0 0 0-.74 2C.4 93.6 3.9 96 8.13 96h84.75c4.24 0 7.73-2.41 8.14-5.6a2.34 2.34 0 0 0-.74-2zm-5.47-37.58a3.2 3.2 0 0 1-2.58-1.53 1.47 1.47 0 0 0-1.79-.42 1.5 1.5 0 0 0-.81 1.67.17.17 0 0 1 0 .04.13.13 0 0 1-.05.1.14.14 0 0 1-.1.03 3.85 3.85 0 0 1-3.26-2.3 7.63 7.63 0 0 1-.5-1.23 1.49 1.49 0 0 0-1.05-1.04 1.42 1.42 0 0 0-1.39.4 1.18 1.18 0 0 1-.95.29c-.4-.09-1.42-.59-2.6-3.38a1.48 1.48 0 0 0-1.18-.92 1.43 1.43 0 0 0-1.33.57.95.95 0 0 1-.49.31.95.95 0 0 1-.46-.38 3.94 3.94 0 0 1-.25-1.87 9.3 9.3 0 0 0-3-7.6 4.8 4.8 0 0 0 2.04-1.46c5.78 2.82 13.47 8.29 19.75 18.72zm2.75-33.1a2.75 2.75 0 0 1-2.35 1.03 1.49 1.49 0 0 0-1.37 1.27 1.5 1.5 0 0 0 .93 1.63.2.2 0 0 1 .13.14A3.35 3.35 0 0 1 91.55 23a7.65 7.65 0 0 1-1.25-.27 1.47 1.47 0 0 0-1.86 1.8.91.91 0 0 1-.17.73c-.38.4-1.63.65-3.97.2a1.47 1.47 0 0 0-1.41.5 1.52 1.52 0 0 0-.25 1.5 1.2 1.2 0 0 1 .05.4 1.26 1.26 0 0 1-.42.1 4.18 4.18 0 0 1-1.69-.83 9.57 9.57 0 0 0-6.1-1.93 4.86 4.86 0 0 0-.44-.34 4.73 4.73 0 0 0-2.61-.82l-.07-.13c4.66-2.99 13.36-6.92 26.2-6.2zM71 27.1a1.8 1.8 0 0 1 .37-.04 1.87 1.87 0 0 1 1.82 1.52 1.89 1.89 0 0 1-1.46 2.22 1.82 1.82 0 0 1-1.4-.28 1.88 1.88 0 0 1-.8-1.2 1.9 1.9 0 0 1 .28-1.41A1.84 1.84 0 0 1 71 27.1zm-4.52 18.34a.97.97 0 0 1-.23.56.94.94 0 0 1-.57-.04 1.42 1.42 0 0 0-1.44.17 1.51 1.51 0 0 0-.59 1.37c.3 3.03-.37 3.97-.67 4.24a1.17 1.17 0 0 1-.97.22 1.42 1.42 0 0 0-1.4.32 1.52 1.52 0 0 0-.44 1.44 7.58 7.58 0 0 1 .16 1.3 3.97 3.97 0 0 1-1.75 3.62.15.15 0 0 1-.09.03.13.13 0 0 1-.13-.1 1.48 1.48 0 0 0-2.88.18 3.27 3.27 0 0 1-1.52 2.6c.54-12.45 4.82-21.12 8.68-26.49a4.7 4.7 0 0 0 2.21.55h.03a9.34 9.34 0 0 0 .93 8.27 3.92 3.92 0 0 1 .67 1.76zm-.3-13.59l-.02.01a1.84 1.84 0 0 1-.93.51 1.82 1.82 0 0 1-1.4-.28 1.88 1.88 0 0 1-.8-1.2 1.89 1.89 0 0 1 1.47-2.22 1.83 1.83 0 0 1 .37-.04 1.87 1.87 0 0 1 1.82 1.52 1.9 1.9 0 0 1-.51 1.7zm1.17-5.6l-.04.06a4.77 4.77 0 0 0-1.98-.66 1.92 1.92 0 0 1 .22-.48 1.85 1.85 0 0 1 1.19-.8 1.81 1.81 0 0 1 .82.02l.08.02a1.87 1.87 0 0 1 .89.6 4.84 4.84 0 0 0-1.18 1.23zm-.55-4.92a4.72 4.72 0 0 0-.65.09 4.8 4.8 0 0 0-.86.26 34.53 34.53 0 0 1 1.53-17.73 3.6 3.6 0 0 1-.1.82 1.51 1.51 0 0 0 .79 1.7 1.46 1.46 0 0 0 1.57-.17 2.44 2.44 0 0 1-.1 2.1 5.7 5.7 0 0 1-.45.82 1.52 1.52 0 0 0-.08 1.51 1.48 1.48 0 0 0 1.25.82.43.43 0 0 1 .2.1c0 .01.31.62-.76 2.67a1.52 1.52 0 0 0 .06 1.52 1.48 1.48 0 0 0 1.23.7 5.38 5.38 0 0 1-.84.83 8.06 8.06 0 0 0-2.79 3.96zm-32.22 47.5a13.98 13.98 0 0 1 12.32 13.7v3.55a6.2 6.2 0 0 0-4.57-1.95 6.69 6.69 0 0 0-5.13 2.51 4.17 4.17 0 0 1-2.62 1.61V68.83zm-15.29 13.7c0-.23.02-.45.03-.68l.02-.23.04-.44.04-.28.05-.4.05-.28a16.04 16.04 0 0 1 .4-1.65l.1-.3.12-.33a15.1 15.1 0 0 1 .5-1.2l.14-.28.16-.3.14-.27c.04-.1.12-.2.17-.3l.16-.26.19-.29.16-.25.21-.3.17-.22.27-.35.25-.3a7.06 7.06 0 0 1 .49-.54l.24-.25.22-.21.24-.23.24-.2.25-.22.24-.2.26-.2.25-.19.27-.2.25-.16.28-.18c.1-.05.18-.11.27-.17l.29-.16.27-.15.3-.16.27-.13.31-.15a7.73 7.73 0 0 1 .6-.25l.28-.1.35-.12.26-.09.4-.11.23-.06.6-.15h.04q.32-.07.65-.12l.2-.03.4-.05v18.3l-.5-.5a6.5 6.5 0 0 0-10.27 0 6.55 6.55 0 0 1-1.54 1.3v-5.4zM92.9 93H8.12c-2.75 0-4.7-1.3-5.12-2.63 1.8-1.6 4.4-3.22 6.6-3.22 1.44 0 2.11.68 3.05 1.63a6.69 6.69 0 0 0 5.13 2.52h.05a6.7 6.7 0 0 0 5.09-2.52c.93-.95 1.6-1.63 3.04-1.63s2.1.68 3.04 1.63a6.5 6.5 0 0 0 10.27 0c.94-.95 1.62-1.63 3.05-1.63s2.1.68 3.04 1.63a6.5 6.5 0 0 0 10.27 0c.94-.95 1.61-1.63 3.04-1.63s2.1.68 3.04 1.63a6.5 6.5 0 0 0 10.28 0c.94-.95 1.61-1.63 3.04-1.63s2.11.68 3.05 1.63a6.5 6.5 0 0 0 10.27 0c.93-.95 1.6-1.63 3.04-1.63 2.2 0 4.8 1.61 6.6 3.22-.43 1.32-2.38 2.63-5.12 2.63z" fill-rule="evenodd"/>
</svg>