<?xml version="1.0" standalone="no"?>
<!DOCTYPE svg PUBLIC "-//W3C//DTD SVG 1.1//EN" "http://www.w3.org/Graphics/SVG/1.1/DTD/svg11.dtd" >
<svg xmlns="http://www.w3.org/2000/svg" xmlns:xlink="http://www.w3.org/1999/xlink" version="1.1">
<metadata>
Created by FontForge 20190801 at Fri Sep  1 19:32:37 2006
 By Unknown
Obscurus. 2006
</metadata>
<defs>
<font id="Lineage2Font" horiz-adv-x="1139" >
  <font-face 
    font-family="Lineage 2 Font"
    font-weight="400"
    font-stretch="normal"
    units-per-em="2048"
    panose-1="2 0 0 0 0 0 0 0 0 0"
    ascent="1638"
    descent="-410"
    x-height="1202"
    cap-height="1533"
    bbox="0 -277 1695 1739"
    underline-thickness="150"
    underline-position="-292"
    unicode-range="U+0020-F005"
  />
<missing-glyph horiz-adv-x="1536" 
d="M256 0v1280h1024v-1280h-1024zM288 32h960v1216h-960v-1216z" />
    <glyph glyph-name=".notdef" horiz-adv-x="1536" 
d="M256 0v1280h1024v-1280h-1024zM288 32h960v1216h-960v-1216z" />
    <glyph glyph-name=".null" horiz-adv-x="0" 
 />
    <glyph glyph-name="nonmarkingreturn" horiz-adv-x="569" 
 />
    <glyph glyph-name="space" unicode=" " horiz-adv-x="569" 
 />
    <glyph glyph-name="space" unicode="&#xa0;" horiz-adv-x="569" 
 />
    <glyph glyph-name="exclam" unicode="!" horiz-adv-x="320" 
d="M0 1433h16q210 -75 210 -161l-16 -1227q0 -57 80 -145h-32q-177 49 -177 161v1259l-81 97v16z" />
    <glyph glyph-name="quotedbl" unicode="&#x22;" horiz-adv-x="681" 
 />
    <glyph glyph-name="numbersign" unicode="#" horiz-adv-x="941" 
d="M895 1506h16q-93 -86 -93 -185v-278l4 -116l-4 -177v-710q0 -95 77 -170h-31q-169 47 -169 154v1359q0 61 200 123zM293 1491h16q200 -72 200 -155l-15 -1173q0 -55 77 -139h-31q-170 47 -170 155v1204l-77 92v16zM0 1383h15q201 -66 201 -170v-1158q0 -61 -185 -123v16
l62 107l-16 108v1111l-77 93v16z" />
    <glyph glyph-name="dollar" unicode="$" horiz-adv-x="1129" 
d="M1099 1596v-16q-82 0 -188 -549l-220 -1005l47 -110v-16h-16q-267 100 -267 314q-141 1058 -172 1131l-63 63v15q235 -66 235 -235l63 -424l-15 -16l78 -644h16q270 1379 314 1413zM0 1392q115 0 204 -126v-1209q-77 -109 -173 -109v15l48 78l-16 581v644q0 94 -63 94v32
z" />
    <glyph glyph-name="percent" unicode="%" horiz-adv-x="875" 
d="M845 1590v-15q-79 0 -181 -528l-211 -966l45 -105v-16h-15q-257 96 -257 302q-141 1102 -181 1102l-45 45v15q226 -64 226 -226l61 -408l-15 -15l75 -619h15q260 1326 302 1359z" />
    <glyph glyph-name="ampersand" unicode="&#x26;" horiz-adv-x="1252" 
d="M815 1609v-15q-92 0 -262 -960l-116 -480l43 -102v-15h-14q-248 83 -248 306q-136 994 -174 1048l-44 43v15q218 -52 218 -218l59 -408h-15q73 -441 73 -582h14q257 1310 306 1310zM1208 1580h14q-87 -82 -87 -175v-1208q0 -84 58 -145l-14 -15q-160 39 -160 160v1266
q0 58 189 117zM713 1289q155 0 189 -146v-1091q-71 -102 -160 -102v15l44 72l-15 510v625q0 88 -58 88v29z" />
    <glyph glyph-name="quotesingle" unicode="'" horiz-adv-x="391" 
 />
    <glyph glyph-name="parenleft" unicode="(" horiz-adv-x="1064" 
d="M1034 1612v-16q-105 -53 -204 -438q-86 -326 -125 -376q188 -690 266 -690l16 -15h-16q-250 52 -250 203l-63 235h-31q-126 -548 -204 -548l-157 -47v16q110 55 235 532l79 267q-188 689 -267 689l-15 16h15q204 0 267 -235l62 -251h16q128 611 235 611zM0 1408
q115 0 204 -125v-1206q-77 -110 -173 -110v16l47 78l-15 580v642q0 94 -63 94v31z" />
    <glyph glyph-name="parenright" unicode=")" horiz-adv-x="749" 
d="M719 1514v-15q-98 -49 -191 -410q-81 -305 -117 -352q175 -646 249 -646l15 -14h-15q-220 0 -264 293q-33 132 -59 132q-100 -513 -190 -513l-147 -59v15q97 45 205 454l88 308l-190 587l-74 59h15q191 0 249 -220l59 -235h15q119 572 220 572z" />
    <glyph glyph-name="asterisk" unicode="*" horiz-adv-x="1401" 
d="M800 1528v-14q-91 0 -257 -943l-115 -471l43 -100v-14h-14q-243 80 -243 300q-133 975 -171 1028l-43 43v14q214 -47 214 -214l114 -971h15q249 1285 300 1285zM1357 1500h14q-86 -80 -86 -172v-1185q0 -83 57 -143l-14 -14q-157 37 -157 157v1242q0 57 186 115z
M900 1314h14q171 -43 171 -129l-14 -1085q0 -51 72 -128h-29q-157 37 -157 157v1099q-25 57 -57 57v29zM700 1214q152 0 185 -143v-1071q-69 -100 -157 -100v15l43 71l-14 500v614q0 85 -57 85v29z" />
    <glyph glyph-name="plus" unicode="+" horiz-adv-x="1196" 
 />
    <glyph glyph-name="comma" unicode="," horiz-adv-x="569" 
 />
    <glyph glyph-name="hyphen" unicode="-" horiz-adv-x="682" 
 />
    <glyph glyph-name="hyphen" unicode="&#xad;" horiz-adv-x="682" 
 />
    <glyph glyph-name="period" unicode="." horiz-adv-x="569" 
 />
    <glyph glyph-name="slash" unicode="/" horiz-adv-x="569" 
 />
    <glyph glyph-name="zero" unicode="0" horiz-adv-x="910" 
d="M367 1491h146q274 0 367 -440v-611q0 -364 -464 -440q-416 102 -416 440v611q86 440 367 440zM171 1198v-905q90 -195 318 -195q157 56 220 195v905q-145 220 -244 220q-172 0 -294 -220z" />
    <glyph glyph-name="one" unicode="1" horiz-adv-x="472" 
d="M338 1716h52v-26l-26 -208l26 -208l-26 -26l26 -130v-130l-26 -26l26 -26l-26 -78l26 -676l52 -182h-182l-26 26h-26q52 0 78 754q0 82 -104 208l26 26v26l-26 104l26 26l-104 52v26l52 78q-156 26 -156 78q171 0 338 312z" />
    <glyph glyph-name="two" unicode="2" horiz-adv-x="860" 
d="M332 1496q451 -48 451 -403q0 -170 -475 -617l-166 -427h24q264 0 641 118h23v-23l-189 -214q-48 0 -48 71h-451l-118 -23l-24 23v24q107 473 546 878l95 190q-86 332 -261 332l-356 -95l-24 24v47q0 71 332 95z" />
    <glyph glyph-name="three" unicode="3" horiz-adv-x="917" 
d="M345 1497q468 -42 468 -443q0 -140 -197 -296q197 0 271 -369v-50q0 -283 -444 -344l-295 24l-49 -49q-55 0 -74 222l24 24h25l172 -147h222q137 0 246 172v172q-80 321 -320 321v24q0 35 197 99l74 221q-89 345 -271 345l-345 -98l-49 49v25q0 74 345 98z" />
    <glyph glyph-name="four" unicode="4" horiz-adv-x="1219" 
d="M784 1670h51v-25l-25 -203l25 -202l-25 -25l25 -127v-126l-25 -26l25 -25v-25l-25 -102l354 102h25v-26l-202 -227q-51 0 -51 75l-126 -25l25 -253v-253l51 -177h-178l-25 25h-25q45 0 76 658l-26 25h-379l-228 -25l-101 25v26q359 430 430 430l25 -25v-26l-227 -278v-76
l76 -25l25 25h354l51 51q-60 152 -101 152l25 25v25l-25 101l25 26l-101 50v26l50 75q-152 26 -152 76q167 0 329 304z" />
    <glyph glyph-name="five" unicode="5" horiz-adv-x="949" 
d="M895 1610h24v-25l-198 -223q-50 0 -50 74h-423l25 -248v-150l-25 -124h75q547 0 547 -447v-50q0 -349 -423 -397l-99 -25l-224 50q0 -75 -49 -75q-56 0 -75 273h50q195 -174 298 -174q348 45 348 274v149q0 264 -323 323l-249 -50l-25 25q50 45 75 596l-50 125h25
l149 -25q182 0 597 124z" />
    <glyph glyph-name="six" unicode="6" horiz-adv-x="899" 
d="M773 1521q54 0 72 -266l-24 -24h-24q-170 193 -314 193q-314 -98 -314 -217v-241l266 72q382 0 434 -483v-96q-87 -459 -459 -459q-310 0 -410 459v603q0 375 483 435h24l193 -48zM169 579v-265q129 -217 266 -217q144 0 265 217v265q-62 338 -265 338t-266 -338z" />
    <glyph glyph-name="seven" unicode="7" horiz-adv-x="1061" 
d="M238 1573l79 -79h714v-27q-108 0 -397 -1163l-53 -52l27 -27v-26q-79 -65 -159 -476h-53q0 233 -264 423v26h159l53 53l-53 53l158 79l-26 27v26q79 91 449 1004l-26 27h-53q-374 0 -793 -159v53z" />
    <glyph glyph-name="eight" unicode="8" horiz-adv-x="900" 
d="M411 1499h97q246 0 290 -411q0 -91 -121 -242q193 -133 193 -362v-73q-85 -411 -386 -411h-97q-302 0 -387 411v97q0 223 193 362q-72 0 -120 218v73q0 338 338 338zM218 1161v-121q15 -145 72 -145h24l121 24l145 -24h24l49 96v170q0 217 -218 265q-217 -32 -217 -265z
M169 459v-193q120 -193 315 -193q58 0 217 193v193q0 285 -266 363q-266 -78 -266 -363z" />
    <glyph glyph-name="nine" unicode="9" horiz-adv-x="899" 
d="M459 1501q310 0 410 -459v-603q0 -375 -483 -435h-24l-193 48l-72 -72q-54 0 -73 266l24 24h24q170 -193 314 -193q314 98 314 217v241l-290 -72q-349 0 -410 483v96q80 459 459 459zM169 1187v-265q63 -338 266 -338t265 338v265q-112 217 -290 217q-98 0 -241 -217z
" />
    <glyph glyph-name="colon" unicode=":" horiz-adv-x="569" 
 />
    <glyph glyph-name="semicolon" unicode=";" horiz-adv-x="569" 
 />
    <glyph glyph-name="semicolon" unicode="&#x37e;" horiz-adv-x="569" 
 />
    <glyph glyph-name="less" unicode="&#x3c;" horiz-adv-x="1196" 
 />
    <glyph glyph-name="equal" unicode="=" horiz-adv-x="1196" 
 />
    <glyph glyph-name="greater" unicode="&#x3e;" horiz-adv-x="1196" 
 />
    <glyph glyph-name="question" unicode="?" 
 />
    <glyph glyph-name="at" unicode="@" horiz-adv-x="686" 
d="M639 1642h17q-101 -94 -101 -202v-1395q0 -98 67 -168l-17 -17q-185 45 -185 185v1463q0 66 219 134zM0 1423q179 0 219 -168v-1260q-83 -118 -185 -118v17l50 84l-17 588v723q0 101 -67 101v33z" />
    <glyph glyph-name="A" unicode="A" horiz-adv-x="982" 
d="M509 1464l443 -1439l-22 -22h-22l-222 22l-22 -22l-22 22v22l133 111v22l-67 22l67 111l-44 44l22 22v45l-89 22l-398 -22l-22 22q-89 -187 -89 -399l22 -22l-22 -22h-111l-44 44q177 298 443 1328l22 23q0 66 44 66zM266 534h44l376 -22v22l-199 642q-82 0 -221 -642z
" />
    <glyph glyph-name="B" unicode="B" horiz-adv-x="989" 
d="M671 1514q168 -152 168 -312v-24q0 -167 -216 -287h-48v24q144 77 144 192v119q0 168 -312 168l-143 24v-359q0 -264 119 -264l144 24q432 -113 432 -408v-143q0 -198 -264 -264h-599v24l48 72v623h-24l-120 -24v24q0 48 144 96v527l-72 96l48 48h383zM264 699v-335
l-24 -288h120l95 24l96 -24h24q194 0 240 288q-64 359 -288 359l-24 -24h-239z" />
    <glyph glyph-name="C" unicode="C" horiz-adv-x="839" 
d="M496 1514h75q147 0 248 -149q0 -50 -74 -50q-149 100 -224 100h-74q-348 -84 -348 -670q75 -646 373 -646q124 0 297 199h25v-25l-25 -199h-24l-25 25l-273 -99q-350 0 -447 695q68 794 372 794z" />
    <glyph glyph-name="D" unicode="D" horiz-adv-x="1040" 
d="M0 1567h24l168 -144l289 48q438 0 505 -601l24 -193q-89 -673 -481 -673h-48l-216 96q0 -40 -145 -96q0 48 -72 48v48q192 104 192 241l-144 649q0 217 -96 577zM265 1302v-48h48v-24l-73 -96l25 -120h-25q49 -123 49 -553l-24 -241q170 -120 312 -120q313 155 313 601
v48q0 568 -337 626h-48z" />
    <glyph glyph-name="E" unicode="E" horiz-adv-x="875" 
d="M708 1645h23l-23 -23v-137l46 -160l-69 -45l-434 22l-23 -22v-503q0 -54 183 -68l91 22v-22q0 -69 -274 -69l-22 -23v-160l-23 -388l23 -23h205l434 115v-23l-160 -183l-68 46h-526l23 160v502h-114v46q114 0 114 91l-23 480l-45 45v46h525q66 274 137 274z" />
    <glyph glyph-name="F" unicode="F" horiz-adv-x="822" 
d="M744 1735h24l-24 -24v-144l48 -168l-72 -48l-456 24l-24 -24v-527q0 -57 192 -72l96 24v-24q0 -72 -288 -72l-24 -24v-168l-24 -408l72 -24v-48h-168l24 168v528h-120v48q120 0 120 96l-24 503l-48 48v48h552q69 288 144 288z" />
    <glyph glyph-name="G" unicode="G" horiz-adv-x="937" 
d="M490 1499h74q145 0 245 -147q0 -49 -74 -49q-147 98 -220 98h-74q-343 -82 -343 -662q74 -637 368 -637q118 0 294 172l-25 24v98l25 25v24l-74 74l49 49q-98 36 -98 73l25 25v24l24 -24h74l122 98h25l-98 -760h-49v172h-25q-176 -172 -294 -172q-345 0 -441 686
q67 784 368 784z" />
    <glyph glyph-name="H" unicode="H" horiz-adv-x="995" 
d="M47 1483h118l23 -24h24q-94 -166 -94 -400v-235l164 -24h401l117 24l24 -24l23 24v282q0 243 -70 330l47 47h94l24 -24h23q-47 -101 -47 -376v-306l-31 -32l-40 8l-23 -23h-188l-330 23l-94 -23l-94 23v-565q0 -78 70 -164l-23 -24h-118l-23 24h-24q47 161 71 1294
l-71 118zM847 683l17 45l50 15l4 -413l24 -283h-47q0 94 -142 118v23l71 71l-24 23z" />
    <glyph glyph-name="I" unicode="I" horiz-adv-x="247" 
d="M0 1477h217l-48 -434l24 -24l-24 -290v-627l48 -73v-24l-169 24l24 169v338q0 693 -72 941z" />
    <glyph glyph-name="J" unicode="J" horiz-adv-x="854" 
d="M618 1491h206l-46 -412l23 -23l-23 -274v-366q0 -337 -435 -412h-23l-228 114l-69 -22v22l-23 183l23 69h46q0 -274 274 -274h69q274 0 274 434v69q0 657 -68 892z" />
    <glyph glyph-name="K" unicode="K" horiz-adv-x="935" 
d="M882 1651h23q-95 -882 -294 -882l-46 -45l227 -679v-45h-159v68l23 22q-137 611 -294 611h-68l-45 -45v-226l-23 -340l68 -67l-23 -23h-181v23l46 135v566h-23l-113 -23v23q0 45 136 90v475q0 76 -68 158l22 23h204v-23l-45 -67v-340q0 -248 113 -248h22q169 0 317 226
l-23 90l46 136l-68 113v23h45l-113 113v22h90q80 0 204 136z" />
    <glyph glyph-name="L" unicode="L" horiz-adv-x="974" 
d="M22 1685h23q121 -180 359 -180v-22q0 -37 -134 -90v-45h45v-22l-68 -90l23 -113v-22l-23 -23v-22l23 -23h22v-44h-22l22 -382v-90l-22 -382l22 -23h23q352 0 629 113v-23l-90 -202h-45q0 67 -113 67h-426l-158 -45v23q0 45 -90 45l-22 -23v45q247 82 247 292
q-180 836 -180 989z" />
    <glyph glyph-name="M" unicode="M" horiz-adv-x="1344" 
d="M438 1495q0 -130 245 -1065h18q166 899 263 1065h17q0 -96 315 -1382l18 -113h-105l-70 23l-70 -23l-18 23v22q123 77 123 114v22l-53 23l53 113q-70 136 -228 861h-35q-228 -960 -228 -1087l18 -68l-18 -23h-105l-35 45q70 121 70 204l-17 68h17l-17 23v22l17 23
q-133 399 -210 793h-35q-210 -867 -228 -1087l18 -68l-18 -23h-105l-35 45q158 288 350 1314q35 0 35 113l18 23h35z" />
    <glyph glyph-name="N" unicode="N" horiz-adv-x="1024" 
d="M0 1514h189q32 0 142 -331l521 -852h47l-24 24v47l24 355q-30 710 -95 710l48 47h94l24 -24h24l-24 -118v-402l-24 -24l24 -23l-24 -355v-497l-47 -47l-710 1182h-47v-94l24 -118l-24 -142v-166l24 -189l-24 -189v-48q0 -123 71 -213v-47q-213 24 -213 71l47 95l24 1159
v47l-71 95v47z" />
    <glyph glyph-name="O" unicode="O" horiz-adv-x="978" 
d="M439 1503h70q416 0 416 -717l23 -92q-93 -694 -462 -694q-428 0 -486 740q0 484 277 740zM116 717q0 -359 277 -578h162q277 221 277 624q0 647 -393 647q-243 0 -323 -554v-139z" />
    <glyph glyph-name="P" unicode="P" horiz-adv-x="1001" 
d="M0 1578h24q147 -146 243 -146l146 49h48q406 0 486 -340l24 -146v-48q0 -278 -340 -316h-73l-291 24l24 -145q0 -486 -97 -486l-73 -24q0 49 -72 49l-25 24v24q219 73 219 267q-146 557 -243 1214zM267 1262h49v-24q-37 -97 -73 -97l24 -24v-73l-24 -24v-25l24 -24h24
l-24 -121q0 -170 194 -170h122q188 0 267 315q-37 389 -340 389h-24q-219 -49 -219 -122z" />
    <glyph glyph-name="Q" unicode="Q" horiz-adv-x="996" 
d="M437 1518h69q414 0 414 -713l23 -92q-80 -506 -161 -506l184 -184v-23h-23q-84 0 -230 138q0 -80 -253 -115q-392 0 -460 736q0 482 276 736zM115 736q0 -357 276 -575h92q124 0 161 92q-92 35 -92 69l23 23l115 -46q138 258 138 483q0 644 -391 644q-242 0 -322 -552
v-138z" />
    <glyph glyph-name="R" unicode="R" horiz-adv-x="999" 
d="M0 1575h24q147 -145 243 -145l145 48h48q406 0 485 -339l24 -146v-48q-72 -291 -218 -291l-24 -97l218 -533l-24 -24h-146l-24 24h-24l24 73q0 239 -194 485l-97 24h-24q-145 -15 -145 -73l24 -73q-30 -436 -121 -436l-73 -24q0 48 -73 48l-24 25v24q194 59 194 266v146
q-121 367 -218 1066zM267 1260h48v-24q-36 -97 -73 -97l25 -24v-73l-25 -24v-25l25 -24h24l-24 -121q0 -170 242 -170q339 35 339 315q-37 388 -339 388h-24q-218 -48 -218 -121z" />
    <glyph glyph-name="S" unicode="S" horiz-adv-x="898" 
d="M458 1495q338 -24 338 -96v-25l-48 -48l-362 97q-241 -117 -241 -386q51 -241 313 -241q410 -31 410 -386v-48q0 -278 -434 -338l-289 24l-49 -48q-53 0 -72 217l24 24h24l169 -145h217q134 0 241 169v169q0 278 -482 338q-217 111 -217 337q0 331 458 386z" />
    <glyph glyph-name="T" unicode="T" horiz-adv-x="1164" 
d="M76 1514h25l101 -50q573 0 932 50v-176l-176 25h-303l-50 -252v-177q101 -403 151 -1109q-126 176 -302 176l-25 26v25l126 101l-26 75l51 76l-25 25v25l-26 908l26 126l-76 25l-479 -101v26z" />
    <glyph glyph-name="U" unicode="U" horiz-adv-x="1041" 
d="M1011 1739v-23l-141 -1410q-166 -306 -400 -306q-291 0 -399 517v165q0 536 -71 799h188l47 -47l-47 -47v-188l-23 -588q94 -470 305 -470h94q141 59 259 470l-47 423l47 212q-36 0 -71 94l47 47l-117 117v24q185 0 329 211z" />
    <glyph glyph-name="V" unicode="V" horiz-adv-x="1051" 
d="M159 1497l45 -45l-22 -91q24 -257 158 -499l159 -544h46l294 1066l-22 91l22 22h137l22 -22h23q-204 -320 -386 -1112q-107 -363 -159 -363l-476 1475l23 22h136z" />
    <glyph glyph-name="W" unicode="W" horiz-adv-x="1534" 
d="M842 1524l40 -45v-23l-80 -137q0 -138 241 -1001q90 0 301 1115l-20 68l20 23h120l40 -45v-23q-174 -278 -421 -1365l-20 -23q0 -68 -40 -68h-20q0 132 -281 1092h-20q-191 -904 -301 -1092h-20q0 99 -381 1479v22h180q0 -159 -40 -159l40 -114l-20 -22v-23
q81 -141 261 -865q85 0 301 1115l-20 68l20 23h120z" />
    <glyph glyph-name="X" unicode="X" horiz-adv-x="897" 
d="M716 1518h43l108 -22v-21q-368 -621 -368 -803l368 -650l-21 -22h-109l-21 22h-22l22 21v22l-282 542h-44l-260 -564l22 -21l-22 -22h-130v22q220 280 369 694q-369 692 -369 780h152v-65l21 -108l-21 -22q156 -185 282 -520h21q261 537 261 672v65z" />
    <glyph glyph-name="Y" unicode="Y" horiz-adv-x="856" 
d="M682 1501h41l103 -23v-23q-351 -664 -351 -858v-186l21 -255l-21 -70l41 -208l-20 -70q-124 232 -289 232v23q0 39 123 93v23q-62 0 -62 46l83 93l-21 23v24l21 92l-21 24l21 116l-351 881h145v-70l20 -116l-20 -23q149 -198 268 -557h21q248 575 248 719v70z" />
    <glyph glyph-name="Z" unicode="Z" horiz-adv-x="1026" 
d="M875 1492h72v-316q-195 -157 -728 -1069l24 -24h24l170 24l25 -24q257 24 510 122l24 -25v-24l-194 -243q-49 0 -49 97h-656q-48 0 -48 73q704 1090 704 1166h-24l-219 24l-243 -24h-146q-60 0 -72 -97h-49v316h24q85 -73 292 -73h121l25 -24l24 24h97l219 -24
q73 0 73 121z" />
    <glyph glyph-name="bracketleft" unicode="[" horiz-adv-x="569" 
 />
    <glyph glyph-name="backslash" unicode="\" horiz-adv-x="569" 
 />
    <glyph glyph-name="bracketright" unicode="]" horiz-adv-x="569" 
 />
    <glyph glyph-name="asciicircum" unicode="^" horiz-adv-x="961" 
d="M821 1582v-15q-93 0 -264 -967l-117 -484l44 -103v-14h-15q-249 82 -249 308q-137 1011 -176 1055l-44 44v15q220 -52 220 -220l59 -396l-15 -15q73 -447 73 -601h15q252 1288 293 1320zM1026 1494h15q-88 -82 -88 -176v-1217q0 -85 59 -146l-15 -15q-161 39 -161 161
v1276q0 58 190 117z" />
    <glyph glyph-name="underscore" unicode="_" 
 />
    <glyph glyph-name="grave" unicode="`" horiz-adv-x="682" 
 />
    <glyph glyph-name="a" unicode="a" horiz-adv-x="1355" 
d="M695 1195h44q0 -84 586 -1152l-22 -21h-195l-44 43l22 22h22q-22 121 -261 543l-65 -22l-304 22h-22q-217 -429 -217 -565l22 -22l-66 -43h-65q-112 0 -130 65q343 335 543 934zM500 695l21 22h261l-109 239q-144 -94 -173 -261z" />
    <glyph glyph-name="b" unicode="b" horiz-adv-x="1207" 
d="M755 1221q266 -70 266 -266v-89q0 -80 -89 -178q195 0 245 -444q0 -222 -378 -244h-644v22l45 67v488h-22l-178 -22v44l200 67v422l-67 89v22h45zM377 1154l-22 -22v-288q0 -164 67 -178h200q178 0 288 178v44q0 244 -266 244h-222l-22 22h-23zM533 555h-178v-266
l-22 -222q710 0 710 177v89q-58 266 -222 266z" />
    <glyph glyph-name="c" unicode="c" horiz-adv-x="1060" 
d="M701 1205h22q188 0 285 -131l-88 -44q-161 109 -350 109q-359 0 -439 -482v-87q0 -379 504 -460q259 0 395 153v-22q-216 -241 -460 -241h-22q-548 66 -548 548v65q109 548 329 548q0 37 372 44z" />
    <glyph glyph-name="d" unicode="d" horiz-adv-x="1129" 
d="M0 1209h132l110 -22l132 22h22q570 0 637 -308l66 -286v-65q-70 -550 -549 -550h-22q-139 0 -352 132h-22v-44l44 -66v-22q-176 14 -176 66l44 44v352q0 501 -66 747zM154 1033l22 -66l-22 -637v-154q157 -66 330 -66q411 0 483 505q0 456 -417 528h-22q-157 0 -374 -110
z" />
    <glyph glyph-name="e" unicode="e" horiz-adv-x="897" 
d="M712 1224l22 -22v-22l-45 -45h-355l-23 22h-22l-22 -22v-289q0 -164 67 -178h155l111 22v-22q-57 -111 -177 -111h-156v-489q294 0 578 111l22 -22v-23l-178 -222q-44 0 -44 89h-534v22l45 134v422l-156 -22v22q56 89 156 89v423l-67 89v22h22z" />
    <glyph glyph-name="f" unicode="f" horiz-adv-x="763" 
d="M710 1221l23 -22v-22l-45 -45h-355l-22 22h-22l-23 -22v-288q0 -164 67 -178h155l111 22v-22q-56 -111 -177 -111h-156v-333l-22 -155l45 -45v-22h-200q66 81 66 155v422l-155 -22v22q56 89 155 89v422l-66 89v22h22z" />
    <glyph glyph-name="g" unicode="g" horiz-adv-x="1210" 
d="M656 1202h65q187 0 284 -131l-87 -44q-161 109 -350 109q-357 0 -437 -480v-88q0 -378 503 -459q415 28 415 263v131q0 131 -131 131v43h197l65 -65l-44 -44v-87l-43 -415h-44v153h-22q-262 -219 -459 -219h-22q-546 66 -546 546v66q110 568 372 568z" />
    <glyph glyph-name="h" unicode="h" horiz-adv-x="1192" 
d="M43 1205h172l65 -65q-50 0 -108 -193l22 -194v-43l-22 -21v-22l151 -21h710v129q0 344 -86 344v21l43 43h129l21 -21h22q-52 0 -65 -1011l65 -129l-22 -22h-150l-43 43q86 0 86 258v237l-581 21h-280l22 -322v-172q64 0 64 -43l-21 -22h-194l-21 22h-22l65 107l43 904
l-108 129z" />
    <glyph glyph-name="i" unicode="i" horiz-adv-x="227" 
d="M0 1202h197l-22 -66l-22 -1070l44 -44v-22q-175 14 -175 66l44 43v350q0 499 -66 743z" />
    <glyph glyph-name="j" unicode="j" horiz-adv-x="812" 
d="M586 1194h196l-22 -109q0 -1042 -217 -1042l-174 -43h-22l-260 174l-22 -22l22 -22v-87h-44l-43 478l22 22h108v-44q-65 0 -65 -173q0 -196 261 -217h43q219 0 282 347q0 495 -65 738z" />
    <glyph glyph-name="k" unicode="k" horiz-adv-x="1009" 
d="M0 1197h196l-22 -109v-153l-22 -348v-21h22q0 60 305 348l130 196l-43 65l21 22h392v-22q-327 -180 -587 -479l587 -631v-43h-326v22l43 43q-269 429 -457 457l-87 -109v-348l44 -65v-22q-174 14 -174 65l43 44v348q0 497 -65 740z" />
    <glyph glyph-name="l" unicode="l" horiz-adv-x="810" 
d="M0 1209h223v-22l-45 -67v-1048q296 0 580 112l22 -23v-22l-178 -223q-45 0 -45 89h-535v22l45 134v937l-67 89v22z" />
    <glyph glyph-name="m" unicode="m" horiz-adv-x="1473" 
d="M433 1205h48q0 -93 264 -789h24l241 789h48l312 -942l73 -219v-22h-121l-24 22h-24l24 66q-168 668 -312 854l-241 -745h-48q-201 654 -288 745l-265 -876l24 -66l-24 -22h-24l-120 22q168 335 433 1183z" />
    <glyph glyph-name="n" unicode="n" horiz-adv-x="1192" 
d="M43 1205h172l344 -473l474 -495v236l21 65l-21 108v129q0 344 -86 344v21l43 43h129l21 -21h22q-65 -115 -65 -1140l-21 -22h-22q-824 947 -860 947v-22l-22 -344l43 -516l43 -43l-21 -22h-194l-21 22h-22l65 107l43 882q-9 65 -108 151z" />
    <glyph glyph-name="o" unicode="o" horiz-adv-x="1123" 
d="M547 1202q418 0 524 -437l22 -153v-65q-70 -547 -546 -547q-547 57 -547 547v65q110 568 372 568zM131 568q94 -437 416 -437q349 0 415 481q0 453 -415 525h-22q-394 -71 -394 -569z" />
    <glyph glyph-name="p" unicode="p" horiz-adv-x="1038" 
d="M0 1205h131l110 -22l131 22h22q614 0 614 -351v-21q0 -302 -460 -351h-110q-219 0 -219 44l-66 -22v-416l44 -66v-22q-175 14 -175 66l44 44v350q0 500 -66 745zM153 1030l22 -66l-22 -307v-87l110 -22h285q350 65 350 328v22q-113 241 -372 241q-156 0 -373 -109z" />
    <glyph glyph-name="q" unicode="q" horiz-adv-x="1233" 
d="M547 1203q419 0 525 -437l22 -154v-65l-88 -328q0 -40 197 -197v-22q-167 0 -306 153q0 -123 -350 -153q-547 66 -547 547v65q110 569 372 569zM131 569q95 -438 416 -438q185 0 262 131q0 44 -87 44l-22 22v22l22 22h22l153 -44q65 90 65 284q0 454 -415 525h-22
q-394 -71 -394 -568z" />
    <glyph glyph-name="r" unicode="r" horiz-adv-x="1035" 
d="M0 1202h131l109 -22l132 22h21q612 0 612 -350v-22q0 -273 -371 -327l284 -459v-44h-197l-22 22h-22l22 22v22q-125 437 -437 437h-43v22l-66 -22v-416l44 -65v-22q-175 14 -175 66l44 43v350q0 499 -66 743zM153 1027l22 -65l-22 -306v-88l109 -22h284q350 66 350 328
v22q-113 240 -371 240q-156 0 -372 -109z" />
    <glyph glyph-name="s" unicode="s" horiz-adv-x="1106" 
d="M646 1205q387 -22 387 -108q0 -64 -86 -64q-145 107 -215 107h-216q-313 0 -387 -236v-43q0 -189 732 -280q150 -85 215 -237q-91 -322 -473 -322l-259 -22l-107 22l-65 -22q-129 44 -129 86l65 65q223 -108 387 -108q430 31 430 301q0 188 -710 259q-215 119 -215 258
v64q91 280 646 280z" />
    <glyph glyph-name="t" unicode="t" horiz-adv-x="1337" 
d="M177 1263h45v-66h864v66h44q127 -92 177 -199l-22 -23v-22q-249 111 -576 111v-22l-22 -22l22 -22v-975l44 -67v-22h-221v44q66 0 66 111v975q-327 0 -576 -111l-22 22v23q51 107 177 199z" />
    <glyph glyph-name="u" unicode="u" horiz-adv-x="948" 
d="M0 1202h175l44 -44q-57 0 -88 -743q88 -306 328 -306q222 0 328 284q-29 722 -88 787l22 22h197l-22 -109q0 -962 -153 -962q-78 -131 -262 -131h-44q-274 0 -393 350l-22 786z" />
    <glyph glyph-name="v" unicode="v" horiz-adv-x="1129" 
d="M110 1209h44l44 -44v-22l-22 -22q274 -822 374 -879l373 879l-44 44l22 22h154l22 -22h22l-505 -1143l-22 -22h-22q-343 854 -484 1077l-66 66v44z" />
    <glyph glyph-name="w" unicode="w" horiz-adv-x="1333" 
d="M112 1205q23 -272 248 -982h22q225 826 270 848q58 -62 269 -848h23l247 870l-23 67l23 23h112q-308 -1183 -359 -1183h-23l-224 870h-45q-225 -870 -270 -870h-22q-203 828 -360 1183z" />
    <glyph glyph-name="x" unicode="x" horiz-adv-x="1125" 
d="M0 1202h150l43 -43h-21q250 -472 386 -472l344 451l-22 21v43h150l43 -43l-451 -537q171 -366 473 -579v-43h-151l-42 43h21q-251 472 -386 472l-344 -451l22 -21v-43h-151l-43 43l430 537q0 127 -365 536l-86 43v43z" />
    <glyph glyph-name="y" unicode="y" horiz-adv-x="1084" 
d="M0 1202h148l42 -42h-21q246 -464 379 -464l338 443l-21 21v42h147l42 -42q-464 -514 -464 -675v-401l43 -63v-21h-211v42q63 0 63 106v421q-257 460 -485 591v42z" />
    <glyph glyph-name="z" unicode="z" horiz-adv-x="1283" 
d="M0 1228h44q68 -66 418 -66h417q352 0 352 -66q0 -77 -330 -330l-637 -681v-22h154l132 22l22 -22h22q447 22 637 110l22 -22v-22l-176 -220q-44 0 -44 88h-967l-44 44l967 1011h-264l-22 22l-65 -22l-550 -22l-66 -66h-22v264z" />
    <glyph glyph-name="braceleft" unicode="{" horiz-adv-x="320" 
 />
    <glyph glyph-name="bar" unicode="|" horiz-adv-x="686" 
 />
    <glyph glyph-name="braceright" unicode="}" horiz-adv-x="941" 
 />
    <glyph glyph-name="asciitilde" unicode="~" horiz-adv-x="1129" 
 />
    <glyph glyph-name="Adieresis" unicode="&#xc4;" horiz-adv-x="875" 
 />
    <glyph glyph-name="Aring" unicode="&#xc5;" horiz-adv-x="1082" 
 />
    <glyph glyph-name="Ccedilla" unicode="&#xc7;" horiz-adv-x="1252" 
 />
    <glyph glyph-name="Eacute" unicode="&#xc9;" horiz-adv-x="1401" 
 />
    <glyph glyph-name="Ntilde" unicode="&#xd1;" horiz-adv-x="1064" 
 />
    <glyph glyph-name="Odieresis" unicode="&#xd6;" horiz-adv-x="749" 
 />
    <glyph glyph-name="Udieresis" unicode="&#xdc;" horiz-adv-x="1479" 
 />
    <glyph glyph-name="aacute" unicode="&#xe1;" 
 />
    <glyph glyph-name="agrave" unicode="&#xe0;" 
 />
    <glyph glyph-name="acircumflex" unicode="&#xe2;" 
 />
    <glyph glyph-name="adieresis" unicode="&#xe4;" 
 />
    <glyph glyph-name="atilde" unicode="&#xe3;" 
 />
    <glyph glyph-name="aring" unicode="&#xe5;" 
 />
    <glyph glyph-name="ccedilla" unicode="&#xe7;" horiz-adv-x="1024" 
 />
    <glyph glyph-name="eacute" unicode="&#xe9;" 
 />
    <glyph glyph-name="egrave" unicode="&#xe8;" 
 />
    <glyph glyph-name="ecircumflex" unicode="&#xea;" 
 />
    <glyph glyph-name="edieresis" unicode="&#xeb;" 
 />
    <glyph glyph-name="iacute" unicode="&#xed;" horiz-adv-x="569" 
 />
    <glyph glyph-name="igrave" unicode="&#xec;" horiz-adv-x="569" 
 />
    <glyph glyph-name="icircumflex" unicode="&#xee;" horiz-adv-x="569" 
 />
    <glyph glyph-name="idieresis" unicode="&#xef;" horiz-adv-x="569" 
 />
    <glyph glyph-name="ntilde" unicode="&#xf1;" 
 />
    <glyph glyph-name="oacute" unicode="&#xf3;" 
 />
    <glyph glyph-name="ograve" unicode="&#xf2;" 
 />
    <glyph glyph-name="ocircumflex" unicode="&#xf4;" 
 />
    <glyph glyph-name="odieresis" unicode="&#xf6;" 
 />
    <glyph glyph-name="otilde" unicode="&#xf5;" 
 />
    <glyph glyph-name="uacute" unicode="&#xfa;" 
 />
    <glyph glyph-name="ugrave" unicode="&#xf9;" 
 />
    <glyph glyph-name="ucircumflex" unicode="&#xfb;" 
 />
    <glyph glyph-name="udieresis" unicode="&#xfc;" 
 />
    <glyph glyph-name="dagger" unicode="&#x2020;" 
 />
    <glyph glyph-name="degree" unicode="&#xb0;" horiz-adv-x="819" 
 />
    <glyph glyph-name="cent" unicode="&#xa2;" 
 />
    <glyph glyph-name="sterling" unicode="&#xa3;" 
 />
    <glyph glyph-name="section" unicode="&#xa7;" 
 />
    <glyph glyph-name="bullet" unicode="&#x2022;" horiz-adv-x="717" 
 />
    <glyph glyph-name="paragraph" unicode="&#xb6;" horiz-adv-x="1100" 
 />
    <glyph glyph-name="germandbls" unicode="&#xdf;" horiz-adv-x="1251" 
 />
    <glyph glyph-name="registered" unicode="&#xae;" horiz-adv-x="1509" 
 />
    <glyph glyph-name="copyright" unicode="&#xa9;" horiz-adv-x="1509" 
 />
    <glyph glyph-name="trademark" unicode="&#x2122;" horiz-adv-x="2048" 
 />
    <glyph glyph-name="acute" unicode="&#xb4;" horiz-adv-x="682" 
 />
    <glyph glyph-name="dieresis" unicode="&#xa8;" horiz-adv-x="682" 
 />
    <glyph glyph-name="notequal" unicode="&#x2260;" horiz-adv-x="1124" 
 />
    <glyph glyph-name="AE" unicode="&#xc6;" horiz-adv-x="2048" 
 />
    <glyph glyph-name="Oslash" unicode="&#xd8;" horiz-adv-x="1593" 
 />
    <glyph glyph-name="infinity" unicode="&#x221e;" horiz-adv-x="1460" 
 />
    <glyph glyph-name="plusminus" unicode="&#xb1;" horiz-adv-x="1124" 
 />
    <glyph glyph-name="lessequal" unicode="&#x2264;" horiz-adv-x="1124" 
 />
    <glyph glyph-name="greaterequal" unicode="&#x2265;" horiz-adv-x="1124" 
 />
    <glyph glyph-name="yen" unicode="&#xa5;" 
 />
    <glyph glyph-name="mu" unicode="&#xb5;" horiz-adv-x="1180" 
 />
    <glyph glyph-name="partialdiff" unicode="&#x2202;" horiz-adv-x="1012" 
 />
    <glyph glyph-name="summation" unicode="&#x2211;" horiz-adv-x="1460" 
 />
    <glyph glyph-name="product" unicode="&#x220f;" horiz-adv-x="1686" 
 />
    <glyph glyph-name="glyph155" horiz-adv-x="1124" 
 />
    <glyph glyph-name="integral" unicode="&#x222b;" horiz-adv-x="561" 
 />
    <glyph glyph-name="ordfeminine" unicode="&#xaa;" horiz-adv-x="758" 
 />
    <glyph glyph-name="ordmasculine" unicode="&#xba;" horiz-adv-x="748" 
 />
    <glyph glyph-name="Omega" unicode="&#x2126;" horiz-adv-x="1573" 
 />
    <glyph glyph-name="ae" unicode="&#xe6;" horiz-adv-x="1821" 
 />
    <glyph glyph-name="oslash" unicode="&#xf8;" horiz-adv-x="1251" 
 />
    <glyph glyph-name="questiondown" unicode="&#xbf;" horiz-adv-x="1251" 
 />
    <glyph glyph-name="exclamdown" unicode="&#xa1;" horiz-adv-x="682" 
 />
    <glyph glyph-name="logicalnot" unicode="&#xac;" horiz-adv-x="1196" 
 />
    <glyph glyph-name="radical" unicode="&#x221a;" horiz-adv-x="1124" 
 />
    <glyph glyph-name="florin" unicode="&#x192;" 
 />
    <glyph glyph-name="approxequal" unicode="&#x2248;" horiz-adv-x="1124" 
 />
    <glyph glyph-name="Delta" unicode="&#x2206;" horiz-adv-x="1253" 
 />
    <glyph glyph-name="guillemotleft" unicode="&#xab;" 
 />
    <glyph glyph-name="guillemotright" unicode="&#xbb;" 
 />
    <glyph glyph-name="ellipsis" unicode="&#x2026;" horiz-adv-x="2048" 
 />
    <glyph glyph-name="Agrave" unicode="&#xc0;" horiz-adv-x="1366" 
 />
    <glyph glyph-name="Atilde" unicode="&#xc3;" horiz-adv-x="1366" 
 />
    <glyph glyph-name="Otilde" unicode="&#xd5;" horiz-adv-x="1593" 
 />
    <glyph glyph-name="OE" unicode="&#x152;" horiz-adv-x="2048" 
 />
    <glyph glyph-name="oe" unicode="&#x153;" horiz-adv-x="1933" 
 />
    <glyph glyph-name="endash" unicode="&#x2013;" 
 />
    <glyph glyph-name="emdash" unicode="&#x2014;" horiz-adv-x="2048" 
 />
    <glyph glyph-name="quotedblleft" unicode="&#x201c;" horiz-adv-x="682" 
 />
    <glyph glyph-name="quotedblright" unicode="&#x201d;" horiz-adv-x="682" 
 />
    <glyph glyph-name="quoteleft" unicode="&#x2018;" horiz-adv-x="455" 
 />
    <glyph glyph-name="quoteright" unicode="&#x2019;" horiz-adv-x="455" 
 />
    <glyph glyph-name="divide" unicode="&#xf7;" horiz-adv-x="1124" 
 />
    <glyph glyph-name="lozenge" unicode="&#x25ca;" horiz-adv-x="1012" 
 />
    <glyph glyph-name="ydieresis" unicode="&#xff;" horiz-adv-x="1024" 
 />
    <glyph glyph-name="Ydieresis" unicode="&#x178;" horiz-adv-x="1366" 
 />
    <glyph glyph-name="fraction" unicode="&#x2044;" horiz-adv-x="342" 
 />
    <glyph glyph-name="fraction" unicode="&#x2215;" horiz-adv-x="342" 
 />
    <glyph glyph-name="Euro" unicode="&#x20ac;" 
 />
    <glyph glyph-name="guilsinglleft" unicode="&#x2039;" horiz-adv-x="682" 
 />
    <glyph glyph-name="guilsinglright" unicode="&#x203a;" horiz-adv-x="682" 
 />
    <glyph glyph-name="uniF001" unicode="&#xf001;" horiz-adv-x="1024" 
 />
    <glyph glyph-name="uniF001" unicode="&#xfb01;" horiz-adv-x="1024" 
 />
    <glyph glyph-name="uniF002" unicode="&#xf002;" horiz-adv-x="1024" 
 />
    <glyph glyph-name="uniF002" unicode="&#xfb02;" horiz-adv-x="1024" 
 />
    <glyph glyph-name="daggerdbl" unicode="&#x2021;" 
 />
    <glyph glyph-name="periodcentered" unicode="&#xb7;" horiz-adv-x="569" 
 />
    <glyph glyph-name="periodcentered" unicode="&#x2219;" horiz-adv-x="569" 
 />
    <glyph glyph-name="quotesinglbase" unicode="&#x201a;" horiz-adv-x="455" 
 />
    <glyph glyph-name="quotedblbase" unicode="&#x201e;" horiz-adv-x="682" 
 />
    <glyph glyph-name="perthousand" unicode="&#x2030;" horiz-adv-x="2048" 
 />
    <glyph glyph-name="Acircumflex" unicode="&#xc2;" horiz-adv-x="1366" 
 />
    <glyph glyph-name="Ecircumflex" unicode="&#xca;" horiz-adv-x="1366" 
 />
    <glyph glyph-name="Aacute" unicode="&#xc1;" horiz-adv-x="1366" 
 />
    <glyph glyph-name="Edieresis" unicode="&#xcb;" horiz-adv-x="1366" 
 />
    <glyph glyph-name="Egrave" unicode="&#xc8;" horiz-adv-x="1366" 
 />
    <glyph glyph-name="Iacute" unicode="&#xcd;" horiz-adv-x="569" 
 />
    <glyph glyph-name="Icircumflex" unicode="&#xce;" horiz-adv-x="569" 
 />
    <glyph glyph-name="Idieresis" unicode="&#xcf;" horiz-adv-x="569" 
 />
    <glyph glyph-name="Igrave" unicode="&#xcc;" horiz-adv-x="569" 
 />
    <glyph glyph-name="Oacute" unicode="&#xd3;" horiz-adv-x="1593" 
 />
    <glyph glyph-name="Ocircumflex" unicode="&#xd4;" horiz-adv-x="1593" 
 />
    <glyph glyph-name="Ograve" unicode="&#xd2;" horiz-adv-x="1593" 
 />
    <glyph glyph-name="Uacute" unicode="&#xda;" horiz-adv-x="1479" 
 />
    <glyph glyph-name="Ucircumflex" unicode="&#xdb;" horiz-adv-x="1479" 
 />
    <glyph glyph-name="Ugrave" unicode="&#xd9;" horiz-adv-x="1479" 
 />
    <glyph glyph-name="dotlessi" unicode="&#x131;" horiz-adv-x="569" 
 />
    <glyph glyph-name="circumflex" unicode="&#x2c6;" horiz-adv-x="682" 
 />
    <glyph glyph-name="tilde" unicode="&#x2dc;" horiz-adv-x="682" 
 />
    <glyph glyph-name="uni02C9" unicode="&#x2c9;" horiz-adv-x="682" 
 />
    <glyph glyph-name="breve" unicode="&#x2d8;" horiz-adv-x="682" 
 />
    <glyph glyph-name="dotaccent" unicode="&#x2d9;" horiz-adv-x="682" 
 />
    <glyph glyph-name="ring" unicode="&#x2da;" horiz-adv-x="682" 
 />
    <glyph glyph-name="cedilla" unicode="&#xb8;" horiz-adv-x="682" 
 />
    <glyph glyph-name="hungarumlaut" unicode="&#x2dd;" horiz-adv-x="682" 
 />
    <glyph glyph-name="ogonek" unicode="&#x2db;" horiz-adv-x="682" 
 />
    <glyph glyph-name="caron" unicode="&#x2c7;" horiz-adv-x="682" 
 />
    <glyph glyph-name="Lslash" unicode="&#x141;" 
 />
    <glyph glyph-name="lslash" unicode="&#x142;" horiz-adv-x="455" 
 />
    <glyph glyph-name="Scaron" unicode="&#x160;" horiz-adv-x="1366" 
 />
    <glyph glyph-name="scaron" unicode="&#x161;" horiz-adv-x="1024" 
 />
    <glyph glyph-name="Zcaron" unicode="&#x17d;" horiz-adv-x="1251" 
 />
    <glyph glyph-name="zcaron" unicode="&#x17e;" horiz-adv-x="1024" 
 />
    <glyph glyph-name="brokenbar" unicode="&#xa6;" horiz-adv-x="532" 
 />
    <glyph glyph-name="Eth" unicode="&#xd0;" horiz-adv-x="1479" 
 />
    <glyph glyph-name="eth" unicode="&#xf0;" 
 />
    <glyph glyph-name="Yacute" unicode="&#xdd;" horiz-adv-x="1366" 
 />
    <glyph glyph-name="yacute" unicode="&#xfd;" horiz-adv-x="1024" 
 />
    <glyph glyph-name="Thorn" unicode="&#xde;" horiz-adv-x="1366" 
 />
    <glyph glyph-name="thorn" unicode="&#xfe;" 
 />
    <glyph glyph-name="minus" unicode="&#x2212;" horiz-adv-x="1196" 
 />
    <glyph glyph-name="multiply" unicode="&#xd7;" horiz-adv-x="1196" 
 />
    <glyph glyph-name="uni00B9" unicode="&#xb9;" horiz-adv-x="682" 
 />
    <glyph glyph-name="uni00B2" unicode="&#xb2;" horiz-adv-x="682" 
 />
    <glyph glyph-name="uni00B3" unicode="&#xb3;" horiz-adv-x="682" 
 />
    <glyph glyph-name="onehalf" unicode="&#xbd;" horiz-adv-x="1708" 
 />
    <glyph glyph-name="onequarter" unicode="&#xbc;" horiz-adv-x="1708" 
 />
    <glyph glyph-name="threequarters" unicode="&#xbe;" horiz-adv-x="1708" 
 />
    <glyph glyph-name="franc" unicode="&#x20a3;" 
 />
    <glyph glyph-name="Gbreve" unicode="&#x11e;" horiz-adv-x="1593" 
 />
    <glyph glyph-name="gbreve" unicode="&#x11f;" 
 />
    <glyph glyph-name="Idotaccent" unicode="&#x130;" horiz-adv-x="569" 
 />
    <glyph glyph-name="Scedilla" unicode="&#x15e;" horiz-adv-x="1366" 
 />
    <glyph glyph-name="scedilla" unicode="&#x15f;" horiz-adv-x="1024" 
 />
    <glyph glyph-name="Cacute" unicode="&#x106;" horiz-adv-x="1479" 
 />
    <glyph glyph-name="cacute" unicode="&#x107;" horiz-adv-x="1024" 
 />
    <glyph glyph-name="Ccaron" unicode="&#x10c;" horiz-adv-x="1479" 
 />
    <glyph glyph-name="ccaron" unicode="&#x10d;" horiz-adv-x="1024" 
 />
    <glyph glyph-name="dcroat" unicode="&#x111;" 
 />
    <glyph glyph-name="currency" unicode="&#xa4;" 
 />
    <glyph glyph-name="macron" unicode="&#xaf;" horiz-adv-x="1131" 
 />
    <glyph glyph-name="Amacron" unicode="&#x100;" horiz-adv-x="1366" 
 />
    <glyph glyph-name="amacron" unicode="&#x101;" 
 />
    <glyph glyph-name="Abreve" unicode="&#x102;" horiz-adv-x="1366" 
 />
    <glyph glyph-name="abreve" unicode="&#x103;" 
 />
    <glyph glyph-name="Aogonek" unicode="&#x104;" horiz-adv-x="1366" 
 />
    <glyph glyph-name="aogonek" unicode="&#x105;" 
 />
    <glyph glyph-name="Ccircumflex" unicode="&#x108;" horiz-adv-x="1479" 
 />
    <glyph glyph-name="ccircumflex" unicode="&#x109;" horiz-adv-x="1024" 
 />
    <glyph glyph-name="Cdotaccent" unicode="&#x10a;" horiz-adv-x="1479" 
 />
    <glyph glyph-name="cdotaccent" unicode="&#x10b;" horiz-adv-x="1024" 
 />
    <glyph glyph-name="Dcaron" unicode="&#x10e;" horiz-adv-x="1479" 
 />
    <glyph glyph-name="dcaron" unicode="&#x10f;" horiz-adv-x="1259" 
 />
    <glyph glyph-name="Dcroat" unicode="&#x110;" horiz-adv-x="1479" 
 />
    <glyph glyph-name="Emacron" unicode="&#x112;" horiz-adv-x="1366" 
 />
    <glyph glyph-name="emacron" unicode="&#x113;" 
 />
    <glyph glyph-name="Ebreve" unicode="&#x114;" horiz-adv-x="1366" 
 />
    <glyph glyph-name="ebreve" unicode="&#x115;" 
 />
    <glyph glyph-name="Edotaccent" unicode="&#x116;" horiz-adv-x="1366" 
 />
    <glyph glyph-name="edotaccent" unicode="&#x117;" 
 />
    <glyph glyph-name="Eogonek" unicode="&#x118;" horiz-adv-x="1366" 
 />
    <glyph glyph-name="eogonek" unicode="&#x119;" 
 />
    <glyph glyph-name="Ecaron" unicode="&#x11a;" horiz-adv-x="1366" 
 />
    <glyph glyph-name="ecaron" unicode="&#x11b;" 
 />
    <glyph glyph-name="Gcircumflex" unicode="&#x11c;" horiz-adv-x="1593" 
 />
    <glyph glyph-name="gcircumflex" unicode="&#x11d;" 
 />
    <glyph glyph-name="Gdotaccent" unicode="&#x120;" horiz-adv-x="1593" 
 />
    <glyph glyph-name="gdotaccent" unicode="&#x121;" 
 />
    <glyph glyph-name="Gcommaaccent" unicode="&#x122;" horiz-adv-x="1593" 
 />
    <glyph glyph-name="gcommaaccent" unicode="&#x123;" 
 />
    <glyph glyph-name="Hcircumflex" unicode="&#x124;" horiz-adv-x="1479" 
 />
    <glyph glyph-name="hcircumflex" unicode="&#x125;" 
 />
    <glyph glyph-name="Hbar" unicode="&#x126;" horiz-adv-x="1479" 
 />
    <glyph glyph-name="hbar" unicode="&#x127;" 
 />
    <glyph glyph-name="Itilde" unicode="&#x128;" horiz-adv-x="569" 
 />
    <glyph glyph-name="itilde" unicode="&#x129;" horiz-adv-x="569" 
 />
    <glyph glyph-name="Imacron" unicode="&#x12a;" horiz-adv-x="569" 
 />
    <glyph glyph-name="imacron" unicode="&#x12b;" horiz-adv-x="569" 
 />
    <glyph glyph-name="Ibreve" unicode="&#x12c;" horiz-adv-x="569" 
 />
    <glyph glyph-name="ibreve" unicode="&#x12d;" horiz-adv-x="569" 
 />
    <glyph glyph-name="Iogonek" unicode="&#x12e;" horiz-adv-x="569" 
 />
    <glyph glyph-name="iogonek" unicode="&#x12f;" horiz-adv-x="455" 
 />
    <glyph glyph-name="IJ" unicode="&#x132;" horiz-adv-x="1505" 
 />
    <glyph glyph-name="ij" unicode="&#x133;" horiz-adv-x="909" 
 />
    <glyph glyph-name="Jcircumflex" unicode="&#x134;" horiz-adv-x="1024" 
 />
    <glyph glyph-name="jcircumflex" unicode="&#x135;" horiz-adv-x="455" 
 />
    <glyph glyph-name="Kcommaaccent" unicode="&#x136;" horiz-adv-x="1366" 
 />
    <glyph glyph-name="kcommaaccent" unicode="&#x137;" horiz-adv-x="1024" 
 />
    <glyph glyph-name="kgreenlandic" unicode="&#x138;" horiz-adv-x="1024" 
 />
    <glyph glyph-name="Lacute" unicode="&#x139;" 
 />
    <glyph glyph-name="lacute" unicode="&#x13a;" horiz-adv-x="455" 
 />
    <glyph glyph-name="Lcommaaccent" unicode="&#x13b;" 
 />
    <glyph glyph-name="lcommaaccent" unicode="&#x13c;" horiz-adv-x="455" 
 />
    <glyph glyph-name="Lcaron" unicode="&#x13d;" 
 />
    <glyph glyph-name="lcaron" unicode="&#x13e;" horiz-adv-x="597" 
 />
    <glyph glyph-name="Ldot" unicode="&#x13f;" 
 />
    <glyph glyph-name="ldot" unicode="&#x140;" horiz-adv-x="684" 
 />
    <glyph glyph-name="Nacute" unicode="&#x143;" horiz-adv-x="1479" 
 />
    <glyph glyph-name="nacute" unicode="&#x144;" 
 />
    <glyph glyph-name="Ncommaaccent" unicode="&#x145;" horiz-adv-x="1479" 
 />
    <glyph glyph-name="ncommaaccent" unicode="&#x146;" 
 />
    <glyph glyph-name="Ncaron" unicode="&#x147;" horiz-adv-x="1479" 
 />
    <glyph glyph-name="ncaron" unicode="&#x148;" 
 />
    <glyph glyph-name="napostrophe" unicode="&#x149;" horiz-adv-x="1237" 
 />
    <glyph glyph-name="Eng" unicode="&#x14a;" horiz-adv-x="1481" 
 />
    <glyph glyph-name="eng" unicode="&#x14b;" 
 />
    <glyph glyph-name="Omacron" unicode="&#x14c;" horiz-adv-x="1593" 
 />
    <glyph glyph-name="omacron" unicode="&#x14d;" 
 />
    <glyph glyph-name="Obreve" unicode="&#x14e;" horiz-adv-x="1593" 
 />
    <glyph glyph-name="obreve" unicode="&#x14f;" 
 />
    <glyph glyph-name="Ohungarumlaut" unicode="&#x150;" horiz-adv-x="1593" 
 />
    <glyph glyph-name="ohungarumlaut" unicode="&#x151;" 
 />
    <glyph glyph-name="Racute" unicode="&#x154;" horiz-adv-x="1479" 
 />
    <glyph glyph-name="racute" unicode="&#x155;" horiz-adv-x="682" 
 />
    <glyph glyph-name="Rcommaaccent" unicode="&#x156;" horiz-adv-x="1479" 
 />
    <glyph glyph-name="rcommaaccent" unicode="&#x157;" horiz-adv-x="682" 
 />
    <glyph glyph-name="Rcaron" unicode="&#x158;" horiz-adv-x="1479" 
 />
    <glyph glyph-name="rcaron" unicode="&#x159;" horiz-adv-x="682" 
 />
    <glyph glyph-name="Sacute" unicode="&#x15a;" horiz-adv-x="1366" 
 />
    <glyph glyph-name="sacute" unicode="&#x15b;" horiz-adv-x="1024" 
 />
    <glyph glyph-name="Scircumflex" unicode="&#x15c;" horiz-adv-x="1366" 
 />
    <glyph glyph-name="scircumflex" unicode="&#x15d;" horiz-adv-x="1024" 
 />
    <glyph glyph-name="Tcommaaccent" unicode="&#x162;" horiz-adv-x="1251" 
 />
    <glyph glyph-name="tcommaaccent" unicode="&#x163;" horiz-adv-x="569" 
 />
    <glyph glyph-name="Tcaron" unicode="&#x164;" horiz-adv-x="1251" 
 />
    <glyph glyph-name="tcaron" unicode="&#x165;" horiz-adv-x="768" 
 />
    <glyph glyph-name="Tbar" unicode="&#x166;" horiz-adv-x="1251" 
 />
    <glyph glyph-name="tbar" unicode="&#x167;" horiz-adv-x="569" 
 />
    <glyph glyph-name="Utilde" unicode="&#x168;" horiz-adv-x="1479" 
 />
    <glyph glyph-name="utilde" unicode="&#x169;" 
 />
    <glyph glyph-name="Umacron" unicode="&#x16a;" horiz-adv-x="1479" 
 />
    <glyph glyph-name="umacron" unicode="&#x16b;" 
 />
    <glyph glyph-name="Ubreve" unicode="&#x16c;" horiz-adv-x="1479" 
 />
    <glyph glyph-name="ubreve" unicode="&#x16d;" 
 />
    <glyph glyph-name="Uring" unicode="&#x16e;" horiz-adv-x="1479" 
 />
    <glyph glyph-name="uring" unicode="&#x16f;" 
 />
    <glyph glyph-name="Uhungarumlaut" unicode="&#x170;" horiz-adv-x="1479" 
 />
    <glyph glyph-name="uhungarumlaut" unicode="&#x171;" 
 />
    <glyph glyph-name="Uogonek" unicode="&#x172;" horiz-adv-x="1479" 
 />
    <glyph glyph-name="uogonek" unicode="&#x173;" 
 />
    <glyph glyph-name="Wcircumflex" unicode="&#x174;" horiz-adv-x="1933" 
 />
    <glyph glyph-name="wcircumflex" unicode="&#x175;" horiz-adv-x="1479" 
 />
    <glyph glyph-name="Ycircumflex" unicode="&#x176;" horiz-adv-x="1366" 
 />
    <glyph glyph-name="ycircumflex" unicode="&#x177;" horiz-adv-x="1024" 
 />
    <glyph glyph-name="Zacute" unicode="&#x179;" horiz-adv-x="1251" 
 />
    <glyph glyph-name="zacute" unicode="&#x17a;" horiz-adv-x="1024" 
 />
    <glyph glyph-name="Zdotaccent" unicode="&#x17b;" horiz-adv-x="1251" 
 />
    <glyph glyph-name="zdotaccent" unicode="&#x17c;" horiz-adv-x="1024" 
 />
    <glyph glyph-name="longs" unicode="&#x17f;" horiz-adv-x="455" 
 />
    <glyph glyph-name="Aringacute" unicode="&#x1fa;" horiz-adv-x="1366" 
 />
    <glyph glyph-name="aringacute" unicode="&#x1fb;" 
 />
    <glyph glyph-name="AEacute" unicode="&#x1fc;" horiz-adv-x="2048" 
 />
    <glyph glyph-name="aeacute" unicode="&#x1fd;" horiz-adv-x="1821" 
 />
    <glyph glyph-name="Oslashacute" unicode="&#x1fe;" horiz-adv-x="1593" 
 />
    <glyph glyph-name="oslashacute" unicode="&#x1ff;" horiz-adv-x="1251" 
 />
    <glyph glyph-name="tonos" unicode="&#x384;" horiz-adv-x="682" 
 />
    <glyph glyph-name="dieresistonos" unicode="&#x385;" horiz-adv-x="682" 
 />
    <glyph glyph-name="Alphatonos" unicode="&#x386;" horiz-adv-x="1367" 
 />
    <glyph glyph-name="anoteleia" unicode="&#x387;" horiz-adv-x="569" 
 />
    <glyph glyph-name="Epsilontonos" unicode="&#x388;" horiz-adv-x="1606" 
 />
    <glyph glyph-name="Etatonos" unicode="&#x389;" horiz-adv-x="1716" 
 />
    <glyph glyph-name="Iotatonos" unicode="&#x38a;" horiz-adv-x="786" 
 />
    <glyph glyph-name="Omicrontonos" unicode="&#x38c;" horiz-adv-x="1586" 
 />
    <glyph glyph-name="Upsilontonos" unicode="&#x38e;" horiz-adv-x="1752" 
 />
    <glyph glyph-name="Omegatonos" unicode="&#x38f;" horiz-adv-x="1541" 
 />
    <glyph glyph-name="iotadieresistonos" unicode="&#x390;" horiz-adv-x="455" 
 />
    <glyph glyph-name="Alpha" unicode="&#x391;" horiz-adv-x="1366" 
 />
    <glyph glyph-name="Beta" unicode="&#x392;" horiz-adv-x="1366" 
 />
    <glyph glyph-name="Gamma" unicode="&#x393;" horiz-adv-x="1128" 
 />
    <glyph glyph-name="uni0394" unicode="&#x394;" horiz-adv-x="1368" 
 />
    <glyph glyph-name="Epsilon" unicode="&#x395;" horiz-adv-x="1366" 
 />
    <glyph glyph-name="Zeta" unicode="&#x396;" horiz-adv-x="1251" 
 />
    <glyph glyph-name="Eta" unicode="&#x397;" horiz-adv-x="1479" 
 />
    <glyph glyph-name="Theta" unicode="&#x398;" horiz-adv-x="1593" 
 />
    <glyph glyph-name="Iota" unicode="&#x399;" horiz-adv-x="569" 
 />
    <glyph glyph-name="Kappa" unicode="&#x39a;" horiz-adv-x="1366" 
 />
    <glyph glyph-name="Lambda" unicode="&#x39b;" horiz-adv-x="1368" 
 />
    <glyph glyph-name="Mu" unicode="&#x39c;" horiz-adv-x="1706" 
 />
    <glyph glyph-name="Nu" unicode="&#x39d;" horiz-adv-x="1479" 
 />
    <glyph glyph-name="Xi" unicode="&#x39e;" horiz-adv-x="1331" 
 />
    <glyph glyph-name="Omicron" unicode="&#x39f;" horiz-adv-x="1593" 
 />
    <glyph glyph-name="Pi" unicode="&#x3a0;" horiz-adv-x="1479" 
 />
    <glyph glyph-name="Rho" unicode="&#x3a1;" horiz-adv-x="1366" 
 />
    <glyph glyph-name="Sigma" unicode="&#x3a3;" horiz-adv-x="1266" 
 />
    <glyph glyph-name="Tau" unicode="&#x3a4;" horiz-adv-x="1251" 
 />
    <glyph glyph-name="Upsilon" unicode="&#x3a5;" horiz-adv-x="1366" 
 />
    <glyph glyph-name="Phi" unicode="&#x3a6;" horiz-adv-x="1634" 
 />
    <glyph glyph-name="Chi" unicode="&#x3a7;" horiz-adv-x="1366" 
 />
    <glyph glyph-name="Psi" unicode="&#x3a8;" horiz-adv-x="1711" 
 />
    <glyph glyph-name="uni03A9" unicode="&#x3a9;" horiz-adv-x="1531" 
 />
    <glyph glyph-name="Iotadieresis" unicode="&#x3aa;" horiz-adv-x="569" 
 />
    <glyph glyph-name="Upsilondieresis" unicode="&#x3ab;" horiz-adv-x="1366" 
 />
    <glyph glyph-name="alphatonos" unicode="&#x3ac;" horiz-adv-x="1184" 
 />
    <glyph glyph-name="epsilontonos" unicode="&#x3ad;" horiz-adv-x="913" 
 />
    <glyph glyph-name="etatonos" unicode="&#x3ae;" 
 />
    <glyph glyph-name="iotatonos" unicode="&#x3af;" horiz-adv-x="455" 
 />
    <glyph glyph-name="upsilondieresistonos" unicode="&#x3b0;" horiz-adv-x="1120" 
 />
    <glyph glyph-name="alpha" unicode="&#x3b1;" horiz-adv-x="1184" 
 />
    <glyph glyph-name="beta" unicode="&#x3b2;" horiz-adv-x="1178" 
 />
    <glyph glyph-name="gamma" unicode="&#x3b3;" horiz-adv-x="1024" 
 />
    <glyph glyph-name="delta" unicode="&#x3b4;" horiz-adv-x="1140" 
 />
    <glyph glyph-name="epsilon" unicode="&#x3b5;" horiz-adv-x="913" 
 />
    <glyph glyph-name="zeta" unicode="&#x3b6;" horiz-adv-x="903" 
 />
    <glyph glyph-name="eta" unicode="&#x3b7;" 
 />
    <glyph glyph-name="theta" unicode="&#x3b8;" 
 />
    <glyph glyph-name="iota" unicode="&#x3b9;" horiz-adv-x="455" 
 />
    <glyph glyph-name="kappa" unicode="&#x3ba;" horiz-adv-x="1024" 
 />
    <glyph glyph-name="lambda" unicode="&#x3bb;" horiz-adv-x="1024" 
 />
    <glyph glyph-name="uni03BC" unicode="&#x3bc;" horiz-adv-x="1180" 
 />
    <glyph glyph-name="nu" unicode="&#x3bd;" horiz-adv-x="1024" 
 />
    <glyph glyph-name="xi" unicode="&#x3be;" horiz-adv-x="917" 
 />
    <glyph glyph-name="omicron" unicode="&#x3bf;" 
 />
    <glyph glyph-name="pi" unicode="&#x3c0;" horiz-adv-x="1413" 
 />
    <glyph glyph-name="rho" unicode="&#x3c1;" horiz-adv-x="1165" 
 />
    <glyph glyph-name="sigma1" unicode="&#x3c2;" horiz-adv-x="987" 
 />
    <glyph glyph-name="sigma" unicode="&#x3c3;" horiz-adv-x="1264" 
 />
    <glyph glyph-name="tau" unicode="&#x3c4;" horiz-adv-x="809" 
 />
    <glyph glyph-name="upsilon" unicode="&#x3c5;" horiz-adv-x="1120" 
 />
    <glyph glyph-name="phi" unicode="&#x3c6;" horiz-adv-x="1328" 
 />
    <glyph glyph-name="chi" unicode="&#x3c7;" horiz-adv-x="1075" 
 />
    <glyph glyph-name="psi" unicode="&#x3c8;" horiz-adv-x="1460" 
 />
    <glyph glyph-name="omega" unicode="&#x3c9;" horiz-adv-x="1599" 
 />
    <glyph glyph-name="iotadieresis" unicode="&#x3ca;" horiz-adv-x="455" 
 />
    <glyph glyph-name="upsilondieresis" unicode="&#x3cb;" horiz-adv-x="1120" 
 />
    <glyph glyph-name="omicrontonos" unicode="&#x3cc;" 
 />
    <glyph glyph-name="upsilontonos" unicode="&#x3cd;" horiz-adv-x="1120" 
 />
    <glyph glyph-name="omegatonos" unicode="&#x3ce;" horiz-adv-x="1599" 
 />
    <glyph glyph-name="afii10023" unicode="&#x401;" horiz-adv-x="948" 
d="M471 1718l47 -47v-24l-118 -235q165 0 165 -47l-47 -47h-47l-95 24l-70 -24l-24 24l-23 -24v-518q0 -47 164 -70l142 23q-39 -94 -165 -94h-141l-24 -164v-353l-23 -24l23 -70h24q262 0 635 117h24v-23l-189 -212q-47 0 -47 71h-588v23l47 141v518h-141q141 96 141 165
l-23 447l-71 94l24 23h235l23 94l-47 188l24 24h165zM800 1718l47 -47v-24q-71 -70 -71 -164l-117 -165h-24v94l24 94l-47 188l23 24h165z" />
    <glyph glyph-name="afii10051" unicode="&#x402;" horiz-adv-x="926" 
 />
    <glyph glyph-name="afii10052" unicode="&#x403;" horiz-adv-x="926" 
 />
    <glyph glyph-name="afii10053" unicode="&#x404;" horiz-adv-x="926" 
 />
    <glyph glyph-name="afii10054" unicode="&#x405;" horiz-adv-x="926" 
 />
    <glyph glyph-name="afii10055" unicode="&#x406;" horiz-adv-x="926" 
 />
    <glyph glyph-name="afii10056" unicode="&#x407;" horiz-adv-x="926" 
 />
    <glyph glyph-name="afii10057" unicode="&#x408;" horiz-adv-x="926" 
 />
    <glyph glyph-name="afii10058" unicode="&#x409;" horiz-adv-x="948" 
 />
    <glyph glyph-name="afii10059" unicode="&#x40a;" horiz-adv-x="926" 
 />
    <glyph glyph-name="afii10060" unicode="&#x40b;" horiz-adv-x="926" 
 />
    <glyph glyph-name="afii10061" unicode="&#x40c;" horiz-adv-x="926" 
 />
    <glyph glyph-name="afii10062" unicode="&#x40e;" horiz-adv-x="926" 
 />
    <glyph glyph-name="afii10145" unicode="&#x40f;" horiz-adv-x="926" 
 />
    <glyph glyph-name="afii10017" unicode="&#x410;" horiz-adv-x="982" 
d="M509 1464l443 -1439l-22 -22h-22l-222 22l-22 -22l-22 22v22l133 111v22l-67 22l67 111l-44 44l22 22v45l-89 22l-398 -22l-22 22q-89 -187 -89 -399l22 -22l-22 -22h-111l-44 44q177 298 443 1328l22 23q0 66 44 66zM266 534h44l376 -22v22l-199 642q-82 0 -221 -642z
" />
    <glyph glyph-name="afii10018" unicode="&#x411;" horiz-adv-x="1015" 
d="M938 1571l23 -23v-24l-187 -234q-47 0 -47 93h-375l-24 24h-23l-24 -24v-304q0 -258 71 -258h211q295 0 422 -422v-47q-30 -352 -352 -352l-117 23l-211 -23h-164l-47 47q70 86 70 164v469l-23 23v24l-118 -24h-23v24q59 94 164 94v516l-94 117l24 23h539zM305 703
l-24 -23v-586l282 23h94q42 0 140 164v118q0 304 -258 304l-211 -23z" />
    <glyph glyph-name="afii10019" unicode="&#x412;" horiz-adv-x="989" 
d="M671 1514q168 -152 168 -312v-24q0 -167 -216 -287h-48v24q144 77 144 192v119q0 168 -312 168l-143 24v-359q0 -264 119 -264l144 24q432 -113 432 -408v-143q0 -198 -264 -264h-599v24l48 72v623h-24l-120 -24v24q0 48 144 96v527l-72 96l48 48h383zM264 699v-335
l-24 -288h120l95 24l96 -24h24q194 0 240 288q-64 359 -288 359l-24 -24h-239z" />
    <glyph glyph-name="afii10020" unicode="&#x413;" horiz-adv-x="1052" 
d="M880 1548h24l118 -214l-23 -24q-273 119 -500 119h-166l-24 -24h-24l24 -356v-143l-24 -333l24 -24v-23l-47 -214q54 0 71 -119h-48v-48q167 -47 167 -95q-288 -37 -428 -214v48q95 719 238 1236v48q0 168 -262 261v48l24 -24q71 0 71 71h71l72 -47h238q325 0 404 71z
" />
    <glyph glyph-name="afii10021" unicode="&#x414;" horiz-adv-x="1660" 
d="M815 1509h23q45 -31 520 -1404l249 91l23 -23v-23l-181 -226q-45 0 -45 91h-1155q-45 0 -45 -68l-23 -23h-23l-158 226l45 46l227 -91q203 350 475 1268q44 7 68 136zM792 1214q-271 -674 -384 -1109l22 -23h747l23 136l-294 747l-91 249h-23z" />
    <glyph glyph-name="afii10022" unicode="&#x415;" horiz-adv-x="875" 
d="M708 1645h23l-23 -23v-137l46 -160l-69 -45l-434 22l-23 -22v-503q0 -54 183 -68l91 22v-22q0 -69 -274 -69l-22 -23v-160l-23 -388l23 -23h205l434 115v-23l-160 -183l-68 46h-526l23 160v502h-114v46q114 0 114 91l-23 480l-45 45v46h525q66 274 137 274z" />
    <glyph glyph-name="afii10024" unicode="&#x416;" horiz-adv-x="1373" 
d="M1194 1514l149 -21v-22q-345 -303 -575 -746h-22l576 -682v-22h-234v43l21 21v22l-43 42l22 22v21q-55 0 -384 362v-447q0 -43 64 -43v-21l-43 -43q-149 51 -149 85l42 43v490q-332 -353 -405 -554l22 -21l-22 -22h-213v22q325 277 576 682q-437 480 -576 768h235v-43
q0 -149 341 -512q0 -64 42 -64l-64 619h171l43 -43l-43 -43v-383l-21 -192v-22h21q384 560 384 619l-21 64l21 21h85z" />
    <glyph glyph-name="afii10025" unicode="&#x417;" horiz-adv-x="900" 
d="M338 1499q460 -41 460 -435q0 -138 -194 -290q194 0 266 -363v-48q0 -279 -435 -339l-290 24l-48 -48q-54 0 -73 218l24 24h25l169 -145h217q135 0 242 169v169q-79 315 -314 315v24q0 33 193 96l73 218q-87 338 -266 338l-339 -96l-48 48v24q0 73 338 97z" />
    <glyph glyph-name="afii10026" unicode="&#x418;" horiz-adv-x="982" 
d="M136 1451l45 -46q-62 0 -90 -657l22 -363v-22l-22 -23v-23h45q612 985 612 1134h204v-46l-68 -90v-114l23 -1065l45 -45v-23q0 -45 -204 -68v45q68 87 68 204v46l-23 158l23 204v46l-23 226l23 204v23h-45q-649 -1116 -703 -1133l-23 22v499l-22 340h22l-22 23v408
l-23 113l23 23h113z" />
    <glyph glyph-name="afii10027" unicode="&#x419;" horiz-adv-x="991" 
d="M686 1624v-23l-297 -366h-23v23l23 160l-23 23l46 46l-69 91l23 23l114 -23h23zM137 1464l46 -46q-63 0 -92 -663l23 -366v-23l-23 -23v-23h46q618 994 618 1144h206v-46l-69 -91v-115l23 -1075l46 -46v-22q0 -46 -206 -69v46q68 87 68 206v45l-22 160l22 206v46l-22 229
l22 206v23h-45q-655 -1127 -709 -1144l-23 23v503l-23 343h23l-23 23v412l-23 114l23 23h114z" />
    <glyph glyph-name="afii10028" unicode="&#x41a;" horiz-adv-x="935" 
d="M882 1651h23q-95 -882 -294 -882l-46 -45l227 -679v-45h-159v68l23 22q-137 611 -294 611h-68l-45 -45v-226l-23 -340l68 -67l-23 -23h-181v23l46 135v566h-23l-113 -23v23q0 45 136 90v475q0 76 -68 158l22 23h204v-23l-45 -67v-340q0 -248 113 -248h22q169 0 317 226
l-23 90l46 136l-68 113v23h45l-113 113v22h90q80 0 204 136z" />
    <glyph glyph-name="afii10029" unicode="&#x41b;" horiz-adv-x="1028" 
d="M544 1497h23q0 -96 408 -1384l23 -113h-136l-91 23l-91 -23v23l137 136v22l-68 23l68 114q-200 480 -295 861h-46q-272 -868 -295 -1088l23 -68l-23 -23h-136l-45 45q204 288 454 1316z" />
    <glyph glyph-name="afii10030" unicode="&#x41c;" horiz-adv-x="1344" 
d="M438 1495q0 -130 245 -1065h18q166 899 263 1065h17q0 -96 315 -1382l18 -113h-105l-70 23l-70 -23l-18 23v22q123 77 123 114v22l-53 23l53 113q-70 136 -228 861h-35q-228 -960 -228 -1087l18 -68l-18 -23h-105l-35 45q70 121 70 204l-17 68h17l-17 23v22l17 23
q-133 399 -210 793h-35q-210 -867 -228 -1087l18 -68l-18 -23h-105l-35 45q158 288 350 1314q35 0 35 113l18 23h35z" />
    <glyph glyph-name="afii10031" unicode="&#x41d;" horiz-adv-x="995" 
d="M47 1483h118l23 -24h24q-94 -166 -94 -400v-235l164 -24h401l117 24l24 -24l23 24v282q0 243 -70 330l47 47h94l24 -24h23q-47 -101 -47 -376v-306l-31 -32l-40 8l-23 -23h-188l-330 23l-94 -23l-94 23v-565q0 -78 70 -164l-23 -24h-118l-23 24h-24q47 161 71 1294
l-71 118zM847 683l17 45l50 15l4 -413l24 -283h-47q0 94 -142 118v23l71 71l-24 23z" />
    <glyph glyph-name="afii10032" unicode="&#x41e;" horiz-adv-x="978" 
d="M439 1503h70q416 0 416 -717l23 -92q-93 -694 -462 -694q-428 0 -486 740q0 484 277 740zM116 717q0 -359 277 -578h162q277 221 277 624q0 647 -393 647q-243 0 -323 -554v-139z" />
    <glyph glyph-name="afii10033" unicode="&#x41f;" horiz-adv-x="1031" 
d="M98 1533h73l73 -48h122l610 24l25 -24v-25l-49 -49l-24 -1318v-48q73 0 73 -49l-25 -24h-24q-171 24 -171 73l49 48v464q0 854 -98 854l-244 25h-146l-25 -25h-24l24 -366v-146l-24 -342l24 -24v-25l-48 -219q55 0 73 -122h-49v-49q171 -49 171 -98q-295 -38 -440 -219
v49q98 738 245 1269v48q0 173 -269 269v49l24 -25q74 0 74 73z" />
    <glyph glyph-name="afii10034" unicode="&#x420;" horiz-adv-x="1001" 
d="M0 1578h24q147 -146 243 -146l146 49h48q406 0 486 -340l24 -146v-48q0 -278 -340 -316h-73l-291 24l24 -145q0 -486 -97 -486l-73 -24q0 49 -72 49l-25 24v24q219 73 219 267q-146 557 -243 1214zM267 1262h49v-24q-37 -97 -73 -97l24 -24v-73l-24 -24v-25l24 -24h24
l-24 -121q0 -170 194 -170h122q188 0 267 315q-37 389 -340 389h-24q-219 -49 -219 -122z" />
    <glyph glyph-name="afii10035" unicode="&#x421;" horiz-adv-x="849" 
d="M496 1514h75q147 0 248 -149q0 -50 -74 -50q-149 100 -224 100h-74q-348 -84 -348 -670q75 -646 373 -646q124 0 297 199h25v-25l-25 -199h-24l-25 25l-273 -99q-350 0 -447 695q68 794 372 794z" />
    <glyph glyph-name="afii10036" unicode="&#x422;" horiz-adv-x="1164" 
d="M76 1514h25l101 -50q573 0 932 50v-176l-176 25h-303l-50 -252v-177q101 -403 151 -1109q-126 176 -302 176l-25 26v25l126 101l-26 75l51 76l-25 25v25l-26 908l26 126l-76 25l-479 -101v26z" />
    <glyph glyph-name="afii10037" unicode="&#x423;" horiz-adv-x="895" 
d="M714 1514h43q108 -5 108 -43q-143 -208 -714 -1428l22 -21l-22 -22h-129v22q143 170 367 648q-389 736 -389 822h151v-65l22 -108l-22 -21q165 -205 260 -476l22 -22h21q260 492 260 649v65z" />
    <glyph glyph-name="afii10038" unicode="&#x424;" horiz-adv-x="1534" 
d="M962 1603h24l-24 -124l24 -24h25l99 24q394 -109 394 -493v-49q0 -282 -345 -321h-148l-148 25q-123 0 -123 -296q0 -163 222 -246v-25l-124 -74q-148 0 -148 394v148l25 124l-296 -25h-74q-345 39 -345 321v49q52 493 468 493h99l197 -49zM123 1011q80 -321 271 -321
h124q197 0 197 173l-25 123l25 25h25l-25 25v74l25 24v25q-57 0 -74 123h49q0 74 -222 123h-25q-307 0 -345 -394zM937 1331q-49 -467 -123 -616l172 -49h124q191 0 271 320q-31 395 -370 395z" />
    <glyph glyph-name="afii10039" unicode="&#x425;" horiz-adv-x="897" 
d="M716 1518h43l108 -22v-21q-368 -621 -368 -803l368 -650l-21 -22h-109l-21 22h-22l22 21v22l-282 542h-44l-260 -564l22 -21l-22 -22h-130v22q220 280 369 694q-369 692 -369 780h152v-65l21 -108l-21 -22q156 -185 282 -520h21q261 537 261 672v65z" />
    <glyph glyph-name="afii10040" unicode="&#x426;" horiz-adv-x="1163" 
d="M24 1678q142 -179 434 -217v-24l-169 -72v-49h49v-24q-37 -96 -73 -96l48 -193v-48h-24l24 -362v-145l-24 -361l24 -24h169q289 0 289 72q49 287 49 796v458l-49 72l193 48l24 -24v-24l-72 -24v-169l24 -1133l169 48l24 -24v-24l-193 -241q-48 0 -48 97l-530 24h-121
l-72 -48h-73q0 72 -72 72l-24 -24v48q265 94 265 265l-169 796z" />
    <glyph glyph-name="afii10041" unicode="&#x427;" horiz-adv-x="1004" 
d="M949 1582h25l-98 -462l25 -25l-171 -754q0 -139 195 -244v-48q-73 0 -73 -49q-171 0 -171 438v97l25 122l-292 -24q-347 0 -414 268q15 219 49 219l-25 24v24l25 244l-25 73h219v-25l-121 -486q88 -293 267 -293h122q195 0 195 171l-25 122l25 24h24l-24 24v73l24 25
l-73 121v25q49 0 195 243z" />
    <glyph glyph-name="afii10042" unicode="&#x428;" horiz-adv-x="1596" 
d="M24 1639q202 -214 427 -214v-23l-166 -72v-47h47v-24l-71 -95l48 -190v-47h-24l24 -356v-142l-24 -356l24 -24h403q95 0 95 854v451l-48 71l190 48l24 -24v-24l-71 -23v-95l24 -1234l23 -24h24l332 24h48l47 830v451l-47 71l190 48l23 -24v-24l-71 -23v-119l24 -1163
l47 -119h-1329l-71 -47h-71q0 71 -71 71l-24 -24v48q261 93 261 261l-166 783z" />
    <glyph glyph-name="afii10043" unicode="&#x429;" horiz-adv-x="1725" 
d="M24 1624q200 -212 423 -212v-23l-165 -71v-47h48v-24l-71 -94l47 -188v-47h-24l24 -353v-142l-24 -353l24 -23h400q94 0 94 847v448l-47 70l189 47l23 -23v-24l-70 -23v-95l23 -1224l24 -23h23l330 23h47l47 824v448l-47 70l188 47l24 -23v-24l-71 -23v-165l24 -1107
l164 47l24 -23v-24l-188 -235q-47 0 -47 95l-707 23h-518l-70 -47h-71q0 70 -70 70l-24 -23v47q259 92 259 259l-165 777z" />
    <glyph glyph-name="afii10044" unicode="&#x42a;" horiz-adv-x="1211" 
d="M213 1582q0 -94 259 -94h47v-24l-47 -71v-307q0 -260 71 -260h213q297 0 425 -425v-47q-30 -354 -355 -354l-118 24l-212 -24h-165l-48 47q71 87 71 166v472l-23 23v24l-118 -24h-24v24q59 94 165 94v520l-47 47l-283 -94l-24 23v24q152 214 213 236zM496 708l-24 -23
v-591l284 24h94q43 0 142 165v166q-39 259 -260 259l-213 -23z" />
    <glyph glyph-name="afii10045" unicode="&#x42b;" horiz-adv-x="1393" 
d="M335 1506v-23l-48 -72v-311q0 -263 72 -263h215q301 0 430 -430v-48q-30 -359 -358 -359l-120 24l-215 -24h-168l-47 48q71 87 71 167v478l-24 24v24l-119 -24h-24v24q60 96 167 96v526l-95 120l24 23h239zM1339 1506l24 -23v-24l-72 -24v-120l24 -1172l48 -119h-215
l-48 48q96 0 96 861v454l-48 72zM311 717l-24 -24v-597l287 24h96q43 0 143 167v167q-39 263 -263 263l-215 -24z" />
    <glyph glyph-name="afii10046" unicode="&#x42c;" horiz-adv-x="1034" 
d="M335 1506v-24l-48 -72v-310q0 -263 72 -263h215q300 0 430 -431v-47q-30 -359 -359 -359l-119 24l-215 -24h-168l-47 48q71 87 71 167v478l-24 24v24l-119 -24h-24v24q60 96 167 96v526l-95 119l24 24h239zM311 717l-24 -24v-597l287 24h95q44 0 144 167v119
q0 311 -263 311l-215 -24z" />
    <glyph glyph-name="afii10047" unicode="&#x42d;" horiz-adv-x="982" 
d="M244 1489h25q463 0 463 -415l98 -317q122 -18 122 -74h-146q0 -591 -415 -683h-49l-220 73l-73 -24l-25 24v244l220 -195h122q240 0 317 537h-146q-131 0 -171 98h25l122 -25q170 25 170 74v24q0 561 -390 561q-88 0 -220 -122h-24l-49 49v25q99 146 244 146z" />
    <glyph glyph-name="afii10048" unicode="&#x42e;" horiz-adv-x="1387" 
d="M230 1468l23 -23v-23l-69 -23v-644h253v69q0 555 368 644h115q414 0 414 -713l23 -92q-76 -690 -506 -690q-336 0 -437 690h-230l23 -161v-299l46 -161h-207l-46 46q92 0 92 828v437l-46 69zM529 663q0 -328 276 -552h161q276 220 276 621q0 644 -391 644
q-322 -76 -322 -644v-69z" />
    <glyph glyph-name="afii10049" unicode="&#x42f;" horiz-adv-x="1006" 
d="M952 1586h24v-24q-103 -674 -220 -1050v-146q0 -209 196 -268v-25l-122 -73q-147 0 -147 390v147q-24 73 -146 73h-25q-292 -90 -292 -561l24 -25l-24 -24h-147l-49 49l220 537l-146 146q-98 124 -98 244q52 512 439 512h122l195 -48zM122 1000q0 -317 390 -317
q196 0 196 171l-25 122l25 24h24l-24 25v73l24 24v25q-56 0 -73 122h49q0 73 -220 122h-24q-305 0 -342 -391z" />
    <glyph glyph-name="afii10065" unicode="&#x430;" horiz-adv-x="1355" 
d="M695 1195h44q0 -84 586 -1152l-22 -21h-195l-44 43l22 22h22q-22 121 -261 543l-65 -22l-304 22h-22q-217 -429 -217 -565l22 -22l-66 -43h-65q-112 0 -130 65q343 335 543 934zM500 695l21 22h261l-109 239q-144 -94 -173 -261z" />
    <glyph glyph-name="afii10066" unicode="&#x431;" horiz-adv-x="1214" 
d="M916 1229l45 -67l-23 -23h-514l-22 23h-22l-23 -23v-290q0 -165 67 -179l537 23q223 -106 223 -447q0 -224 -380 -246h-648v22l45 67v492h-22l-179 -23v45l201 67v425l-67 89v22h22zM536 558h-179v-268l-22 -223q715 0 715 179v67q-67 290 -223 290z" />
    <glyph glyph-name="afii10067" unicode="&#x432;" horiz-adv-x="1207" 
d="M755 1221q266 -70 266 -266v-89q0 -80 -89 -178q195 0 245 -444q0 -222 -378 -244h-644v22l45 67v488h-22l-178 -22v44l200 67v422l-67 89v22h45zM377 1154l-22 -22v-288q0 -164 67 -178h200q178 0 288 178v44q0 244 -266 244h-222l-22 22h-23zM533 555h-178v-266
l-22 -222q710 0 710 177v89q-58 266 -222 266z" />
    <glyph glyph-name="afii10068" unicode="&#x433;" horiz-adv-x="675" 
d="M623 1224l22 -22v-23l-44 -44h-356l-22 22h-23l-22 -22v-89l-8 -375l-14 -604q67 0 67 -45l-23 -22h-200q67 81 67 156v378l-22 89l22 89v378l-67 89v23h22z" />
    <glyph glyph-name="afii10069" unicode="&#x434;" horiz-adv-x="1237" 
d="M634 1105l328 -777l61 -205l164 41l20 -20v-21q-47 -99 -164 -184h-41v61h-797v-61h-41q-117 85 -164 184l20 21v20l144 -41q143 235 409 962l20 20h41zM573 880q-205 -399 -307 -798l348 -20l307 20q-103 359 -348 798z" />
    <glyph glyph-name="afii10070" unicode="&#x435;" horiz-adv-x="897" 
d="M712 1224l22 -22v-22l-45 -45h-355l-23 22h-22l-22 -22v-289q0 -164 67 -178h155l111 22v-22q-57 -111 -177 -111h-156v-489q294 0 578 111l22 -22v-23l-178 -222q-44 0 -44 89h-534v22l45 134v422l-156 -22v22q56 89 156 89v423l-67 89v22h22z" />
    <glyph glyph-name="afii10072" unicode="&#x436;" horiz-adv-x="1125" 
d="M0 1202h150l43 -43h-21l300 -451h22v344q0 107 -65 107v43h215v-21l-43 -65v-343h43l258 365l-22 21v43h150l43 -43q-429 -488 -429 -579q218 -400 451 -537v-43h-151l-42 43h21l-301 451h-21v-408l43 -65v-21h-215v43q65 0 65 107v301l-301 -387l22 -21v-43h-151l-43 43
l430 537q0 127 -365 536l-86 43v43z" />
    <glyph glyph-name="afii10073" unicode="&#x437;" horiz-adv-x="1063" 
d="M430 1205q487 0 603 -280v-64q0 -185 -280 -258v-22q151 0 258 -194v-107q-90 -280 -645 -280h-65l-107 22l-22 -22h-21q-151 38 -151 86q0 32 86 65q166 -108 344 -108q452 31 452 280q0 145 -366 258v43q388 106 388 215q0 323 -474 323q-109 0 -387 -129l-21 21v65
q0 73 408 86z" />
    <glyph glyph-name="afii10074" unicode="&#x438;" horiz-adv-x="1207" 
d="M1133 1221l44 -44q0 -44 -65 -44l-44 -87l44 -937q32 0 65 -87l-22 -22h-196l-44 44l66 43l22 502l-22 370q-37 0 -872 -959q-44 0 -44 65q0 981 -65 1112l22 22h152l44 -44v-22q-87 0 -87 -348v-131l-22 -87l22 -87v-240q764 771 806 981h196z" />
    <glyph glyph-name="afii10075" unicode="&#x439;" horiz-adv-x="1207" 
d="M545 1264q87 -35 87 -152l-131 -109h-43q33 261 87 261zM1133 1221l44 -44q0 -44 -65 -44l-44 -87l44 -937q32 0 65 -87l-22 -22h-196l-44 44l66 43l22 502l-22 370q-37 0 -872 -959q-44 0 -44 65q0 981 -65 1112l22 22h152l44 -44v-22q-87 0 -87 -348v-131l-22 -87
l22 -87v-240q764 771 806 981h196z" />
    <glyph glyph-name="afii10076" unicode="&#x43a;" horiz-adv-x="1009" 
d="M0 1197h196l-22 -109v-153l-22 -348v-21h22q0 60 305 348l130 196l-43 65l21 22h392v-22q-327 -180 -587 -479l587 -631v-43h-326v22l43 43q-269 429 -457 457l-87 -109v-348l44 -65v-22q-174 14 -174 65l43 44v348q0 497 -65 740z" />
    <glyph glyph-name="afii10077" unicode="&#x43b;" horiz-adv-x="1359" 
d="M697 1198h44q0 -84 588 -1154l-22 -22h-196l-43 43l21 22h22q0 78 -436 872q-99 -21 -239 -414q-196 -294 -196 -480l21 -21l-65 -44h-65q-113 0 -131 65q344 336 545 937z" />
    <glyph glyph-name="afii10078" unicode="&#x43c;" horiz-adv-x="1473" 
d="M433 1205h48q0 -93 264 -789h24l241 789h48l312 -942l73 -219v-22h-121l-24 22h-24l24 66q-168 668 -312 854l-241 -745h-48q-201 654 -288 745l-265 -876l24 -66l-24 -22h-24l-120 22q168 335 433 1183z" />
    <glyph glyph-name="afii10079" unicode="&#x43d;" horiz-adv-x="1192" 
d="M43 1205h172l65 -65q-50 0 -108 -193l22 -194v-43l-22 -21v-22l151 -21h710v129q0 344 -86 344v21l43 43h129l21 -21h22q-52 0 -65 -1011l65 -129l-22 -22h-150l-43 43q86 0 86 258v237l-581 21h-280l22 -322v-172q64 0 64 -43l-21 -22h-194l-21 22h-22l65 107l43 904
l-108 129z" />
    <glyph glyph-name="afii10080" unicode="&#x43e;" horiz-adv-x="1123" 
d="M547 1202q418 0 524 -437l22 -153v-65q-70 -547 -546 -547q-547 57 -547 547v65q110 568 372 568zM131 568q94 -437 416 -437q349 0 415 481q0 453 -415 525h-22q-394 -71 -394 -569z" />
    <glyph glyph-name="afii10081" unicode="&#x43f;" horiz-adv-x="1199" 
d="M22 1213l541 -22h563l22 -22h21q-52 0 -65 -1017l65 -130l-21 -22h-152l-43 43q86 0 86 260v520l-21 260l-542 21h-281l22 -21v-22l-44 -108l22 -195v-43l-22 -22l22 -22l-22 -65l22 -454v-87q65 0 65 -43l-22 -22h-195l-21 22h-22l65 108l43 909l-108 130l22 22v22z" />
    <glyph glyph-name="afii10082" unicode="&#x440;" horiz-adv-x="1038" 
d="M0 1205h131l110 -22l131 22h22q614 0 614 -351v-21q0 -302 -460 -351h-110q-219 0 -219 44l-66 -22v-416l44 -66v-22q-175 14 -175 66l44 44v350q0 500 -66 745zM153 1030l22 -66l-22 -307v-87l110 -22h285q350 65 350 328v22q-113 241 -372 241q-156 0 -373 -109z" />
    <glyph glyph-name="afii10083" unicode="&#x441;" horiz-adv-x="1060" 
d="M701 1205h22q188 0 285 -131l-88 -44q-161 109 -350 109q-359 0 -439 -482v-87q0 -379 504 -460q259 0 395 153v-22q-216 -241 -460 -241h-22q-548 66 -548 548v65q109 548 329 548q0 37 372 44z" />
    <glyph glyph-name="afii10084" unicode="&#x442;" horiz-adv-x="1337" 
d="M177 1263h45v-66h864v66h44q127 -92 177 -199l-22 -23v-22q-249 111 -576 111v-22l-22 -22l22 -22v-975l44 -67v-22h-221v44q66 0 66 111v975q-327 0 -576 -111l-22 22v23q51 107 177 199z" />
    <glyph glyph-name="afii10085" unicode="&#x443;" horiz-adv-x="1104" 
d="M0 1203h150l43 -43h-21q251 -473 386 -473l344 451l-21 22v43h150l43 -43l-881 -1096l22 -21v-43h-151l-43 43l430 537q0 127 -365 537l-86 43v43z" />
    <glyph glyph-name="afii10086" unicode="&#x444;" horiz-adv-x="1298" 
d="M459 1202h22l22 -21l22 21h131l87 -21l110 21q415 0 415 -306v-87q-81 -328 -328 -328h-109l-153 22v-328l-22 -109l44 -44v-22l-132 22l22 109v372l-153 -22h-109q-328 81 -328 328v87q0 306 459 306zM87 853q59 -306 307 -306h153l43 43v131l-22 328l-218 88
q-263 -88 -263 -284zM678 1006v-306l-22 -110l65 -43h153q263 0 307 327q-80 263 -307 263q-125 -38 -196 -131z" />
    <glyph glyph-name="afii10087" unicode="&#x445;" horiz-adv-x="1125" 
d="M0 1202h150l43 -43h-21q250 -472 386 -472l344 451l-22 21v43h150l43 -43l-451 -537q171 -366 473 -579v-43h-151l-42 43h21q-251 472 -386 472l-344 -451l22 -21v-43h-151l-43 43l430 537q0 127 -365 536l-86 43v43z" />
    <glyph glyph-name="afii10088" unicode="&#x446;" horiz-adv-x="1191" 
d="M153 1205l44 -44l-66 -65v-745l22 -263h197q460 0 460 66v832q0 114 -66 197l22 22h110l22 -22h22l-44 -131v-723l22 -219l241 66l22 -22v-22q-50 -106 -176 -197q-43 0 -43 66h-548l-372 -22l-22 22v22q66 80 66 153l-22 898l-44 109l22 22h131z" />
    <glyph glyph-name="afii10089" unicode="&#x447;" horiz-adv-x="1054" 
d="M0 1198h196l-43 -152l21 -109l-21 -218q190 -174 326 -174h284l108 21v88l-21 305l21 21v22l-43 196h196q-65 -243 -65 -740v-371l43 -65v-22q-174 14 -174 65l43 44v392h-43v22q-85 -44 -240 -44h-87q-380 0 -479 305l22 175z" />
    <glyph glyph-name="afii10090" unicode="&#x448;" horiz-adv-x="1199" 
d="M216 1212l44 -43l-65 -22v-86l-22 -455l22 -65h-22l22 -21v-65l-22 -195l43 -130l-21 -22h390v563q0 198 -87 282l22 21h151l43 -43q-65 -22 -65 -130v-43l22 -650l325 22h21l22 260v519q0 198 -86 282l21 21h152l43 -43q-65 -22 -65 -130q13 -996 65 -996l-22 -21h-584
l-541 -22l-22 22v21l108 109l-43 952l-65 87l22 21h194z" />
    <glyph glyph-name="afii10091" unicode="&#x449;" horiz-adv-x="1428" 
d="M218 1197l44 -44l-65 -22v-87l-22 -459l22 -65h-22l22 -22v-66l-22 -196l43 -131l-21 -22h393v568q0 200 -88 284l22 22h153l44 -44q-66 -22 -66 -131v-44l22 -655l328 22h22l22 262v524q0 200 -88 284l22 22h153l44 -44q-66 -22 -66 -131l22 -852l22 -65l218 65l22 -22
v-21q-50 -106 -175 -197q-43 0 -43 66h-612l-546 -22l-22 22v21q0 33 87 66v44h22l-43 961l-66 87l22 22h196z" />
    <glyph glyph-name="afii10092" unicode="&#x44a;" horiz-adv-x="1230" 
d="M178 1289q57 -89 311 -89h44v-44q-66 0 -66 -45v-267q0 -177 89 -177l466 22q178 -182 178 -445q0 -227 -356 -244h-577q66 81 66 156v422h-22l-155 -22v22q0 49 177 89v444h-22l-289 -67l-22 23v22q51 108 178 200zM600 556h-133v-267l-23 -222q623 0 623 155l22 67
q-67 311 -222 311z" />
    <glyph glyph-name="afii10093" unicode="&#x44b;" horiz-adv-x="1386" 
d="M111 1200h267v-44q-67 0 -67 -45v-266q0 -178 89 -178l467 22q178 -182 178 -444q0 -228 -356 -245h-578q67 81 67 156v422h-22l-156 -22v22q0 49 178 89v422l-67 89v22zM1089 1200h267v-44q-67 0 -67 -45v-822l-22 -222l45 -45v-22h-201v22l45 134v933l-67 89v22z
M445 556h-134v-267l-22 -222q622 0 622 155l23 67q-67 311 -223 311z" />
    <glyph glyph-name="afii10094" unicode="&#x44c;" horiz-adv-x="1076" 
d="M111 1202h267v-45q-66 0 -66 -44v-267q0 -178 89 -178l467 22q178 -182 178 -445q0 -228 -356 -245h-579q67 81 67 156v423h-22l-156 -23v23q0 49 178 89v423l-67 89v22zM445 556h-133v-267l-23 -222q624 0 624 156l22 66q-67 312 -223 312z" />
    <glyph glyph-name="afii10095" unicode="&#x44d;" horiz-adv-x="1169" 
d="M285 1205h66q513 0 569 -285q88 -307 132 -307l87 -65v-22l-153 22v-22q0 -344 -285 -482q-85 -44 -241 -44h-22q-231 0 -438 219h22q117 -109 372 -109q333 0 482 394v22q-328 0 -328 87v22l219 -22l109 22q0 369 -328 482l-110 22q-137 0 -394 -109l-44 65
q151 110 285 110z" />
    <glyph glyph-name="afii10096" unicode="&#x44e;" horiz-adv-x="1386" 
d="M845 1223q438 0 511 -578v-67q0 -440 -400 -578h-134q-408 0 -489 534l-22 22h-66l-45 -45v-222l-22 -222l44 -45v-22h-200v22l45 67v1000l-67 89v22h267v-44q-67 0 -67 -45v-444h133q83 556 512 556zM467 689v-133q73 -423 400 -423q264 0 356 423v133q-56 467 -401 467
q-355 -91 -355 -467z" />
    <glyph glyph-name="afii10097" unicode="&#x44f;" horiz-adv-x="1032" 
d="M610 1198h22l109 -22l130 22h131q-65 -243 -65 -741v-370l43 -65v-22q-174 14 -174 65l43 44v392h-43l-80 -1q-269 -29 -269 -151q-152 -174 -152 -284l22 -21v-22l-22 -22h-218v44l283 457q-370 54 -370 327v21q0 349 610 349zM109 893v-22q0 -261 348 -326h284l108 21
v87l-21 305l21 66q-215 109 -370 109q-257 0 -370 -240z" />
    <glyph glyph-name="afii10071" unicode="&#x451;" horiz-adv-x="963" 
d="M431 1393l47 -72l-95 -119h71q192 0 192 167l24 24h24l48 -72l-72 -95q119 -7 119 -72l-24 -24h-478v-287q0 -191 167 -191l192 23v-23q0 -80 -359 -120v-407l-24 -24v-24l24 -23h24q194 0 598 119l24 -24v-24q-55 -116 -191 -215l-72 72l-144 24l-263 -24h-119l-48 48
l71 71v479l-167 -24v24q14 72 167 72v430l-71 96v24h263q0 191 72 191z" />
    <glyph glyph-name="afii10099" unicode="&#x452;" 
 />
    <glyph glyph-name="afii10100" unicode="&#x453;" horiz-adv-x="747" 
 />
    <glyph glyph-name="afii10101" unicode="&#x454;" horiz-adv-x="1045" 
 />
    <glyph glyph-name="afii10102" unicode="&#x455;" horiz-adv-x="1024" 
 />
    <glyph glyph-name="afii10103" unicode="&#x456;" horiz-adv-x="455" 
 />
    <glyph glyph-name="afii10104" unicode="&#x457;" horiz-adv-x="569" 
 />
    <glyph glyph-name="afii10105" unicode="&#x458;" horiz-adv-x="455" 
 />
    <glyph glyph-name="afii10106" unicode="&#x459;" horiz-adv-x="1856" 
 />
    <glyph glyph-name="afii10107" unicode="&#x45a;" horiz-adv-x="1664" 
 />
    <glyph glyph-name="afii10108" unicode="&#x45b;" 
 />
    <glyph glyph-name="afii10109" unicode="&#x45c;" horiz-adv-x="896" 
 />
    <glyph glyph-name="afii10110" unicode="&#x45e;" horiz-adv-x="1024" 
 />
    <glyph glyph-name="afii10193" unicode="&#x45f;" horiz-adv-x="1131" 
 />
    <glyph glyph-name="afii10050" unicode="&#x490;" horiz-adv-x="1001" 
 />
    <glyph glyph-name="afii10098" unicode="&#x491;" horiz-adv-x="842" 
 />
    <glyph glyph-name="Wgrave" unicode="&#x1e80;" horiz-adv-x="1933" 
 />
    <glyph glyph-name="wgrave" unicode="&#x1e81;" horiz-adv-x="1479" 
 />
    <glyph glyph-name="Wacute" unicode="&#x1e82;" horiz-adv-x="1933" 
 />
    <glyph glyph-name="wacute" unicode="&#x1e83;" horiz-adv-x="1479" 
 />
    <glyph glyph-name="Wdieresis" unicode="&#x1e84;" horiz-adv-x="1933" 
 />
    <glyph glyph-name="wdieresis" unicode="&#x1e85;" horiz-adv-x="1479" 
 />
    <glyph glyph-name="Ygrave" unicode="&#x1ef2;" horiz-adv-x="1366" 
 />
    <glyph glyph-name="ygrave" unicode="&#x1ef3;" horiz-adv-x="1024" 
 />
    <glyph glyph-name="afii00208" unicode="&#x2015;" horiz-adv-x="2048" 
 />
    <glyph glyph-name="underscoredbl" unicode="&#x2017;" horiz-adv-x="1131" 
 />
    <glyph glyph-name="quotereversed" unicode="&#x201b;" horiz-adv-x="455" 
 />
    <glyph glyph-name="minute" unicode="&#x2032;" horiz-adv-x="384" 
 />
    <glyph glyph-name="second" unicode="&#x2033;" horiz-adv-x="725" 
 />
    <glyph glyph-name="exclamdbl" unicode="&#x203c;" horiz-adv-x="1024" 
 />
    <glyph glyph-name="uni203E" unicode="&#x203e;" horiz-adv-x="682" 
 />
    <glyph glyph-name="uni207F" unicode="&#x207f;" horiz-adv-x="747" 
 />
    <glyph glyph-name="lira" unicode="&#x20a4;" 
 />
    <glyph glyph-name="peseta" unicode="&#x20a7;" horiz-adv-x="2240" 
 />
    <glyph glyph-name="afii61248" unicode="&#x2105;" horiz-adv-x="1813" 
 />
    <glyph glyph-name="afii61289" unicode="&#x2113;" horiz-adv-x="662" 
 />
    <glyph glyph-name="afii61352" unicode="&#x2116;" horiz-adv-x="2197" 
 />
    <glyph glyph-name="estimated" unicode="&#x212e;" horiz-adv-x="1229" 
 />
    <glyph glyph-name="oneeighth" unicode="&#x215b;" horiz-adv-x="1708" 
 />
    <glyph glyph-name="threeeighths" unicode="&#x215c;" horiz-adv-x="1708" 
 />
    <glyph glyph-name="fiveeighths" unicode="&#x215d;" horiz-adv-x="1708" 
 />
    <glyph glyph-name="seveneighths" unicode="&#x215e;" horiz-adv-x="1708" 
 />
    <glyph glyph-name="arrowleft" unicode="&#x2190;" horiz-adv-x="2048" 
 />
    <glyph glyph-name="arrowup" unicode="&#x2191;" horiz-adv-x="1024" 
 />
    <glyph glyph-name="arrowright" unicode="&#x2192;" horiz-adv-x="2048" 
 />
    <glyph glyph-name="arrowdown" unicode="&#x2193;" horiz-adv-x="1024" 
 />
    <glyph glyph-name="arrowboth" unicode="&#x2194;" horiz-adv-x="2048" 
 />
    <glyph glyph-name="arrowupdn" unicode="&#x2195;" horiz-adv-x="1024" 
 />
    <glyph glyph-name="arrowupdnbse" unicode="&#x21a8;" horiz-adv-x="1024" 
 />
    <glyph glyph-name="orthogonal" unicode="&#x221f;" horiz-adv-x="2005" 
 />
    <glyph glyph-name="intersection" unicode="&#x2229;" horiz-adv-x="1472" 
 />
    <glyph glyph-name="equivalence" unicode="&#x2261;" horiz-adv-x="1195" 
 />
    <glyph glyph-name="house" unicode="&#x2302;" horiz-adv-x="1237" 
 />
    <glyph glyph-name="revlogicalnot" unicode="&#x2310;" horiz-adv-x="1196" 
 />
    <glyph glyph-name="integraltp" unicode="&#x2320;" horiz-adv-x="1237" 
 />
    <glyph glyph-name="integralbt" unicode="&#x2321;" horiz-adv-x="1237" 
 />
    <glyph glyph-name="SF100000" unicode="&#x2500;" horiz-adv-x="1451" 
 />
    <glyph glyph-name="SF110000" unicode="&#x2502;" horiz-adv-x="1280" 
 />
    <glyph glyph-name="SF010000" unicode="&#x250c;" horiz-adv-x="1451" 
 />
    <glyph glyph-name="SF030000" unicode="&#x2510;" horiz-adv-x="1451" 
 />
    <glyph glyph-name="SF020000" unicode="&#x2514;" horiz-adv-x="1451" 
 />
    <glyph glyph-name="SF040000" unicode="&#x2518;" horiz-adv-x="1451" 
 />
    <glyph glyph-name="SF080000" unicode="&#x251c;" horiz-adv-x="1451" 
 />
    <glyph glyph-name="SF090000" unicode="&#x2524;" horiz-adv-x="1451" 
 />
    <glyph glyph-name="SF060000" unicode="&#x252c;" horiz-adv-x="1451" 
 />
    <glyph glyph-name="SF070000" unicode="&#x2534;" horiz-adv-x="1451" 
 />
    <glyph glyph-name="SF050000" unicode="&#x253c;" horiz-adv-x="1451" 
 />
    <glyph glyph-name="SF430000" unicode="&#x2550;" horiz-adv-x="1451" 
 />
    <glyph glyph-name="SF240000" unicode="&#x2551;" horiz-adv-x="1451" 
 />
    <glyph glyph-name="SF510000" unicode="&#x2552;" horiz-adv-x="1451" 
 />
    <glyph glyph-name="SF520000" unicode="&#x2553;" horiz-adv-x="1451" 
 />
    <glyph glyph-name="SF390000" unicode="&#x2554;" horiz-adv-x="1451" 
 />
    <glyph glyph-name="SF220000" unicode="&#x2555;" horiz-adv-x="1451" 
 />
    <glyph glyph-name="SF210000" unicode="&#x2556;" horiz-adv-x="1451" 
 />
    <glyph glyph-name="SF250000" unicode="&#x2557;" horiz-adv-x="1451" 
 />
    <glyph glyph-name="SF500000" unicode="&#x2558;" horiz-adv-x="1451" 
 />
    <glyph glyph-name="SF490000" unicode="&#x2559;" horiz-adv-x="1451" 
 />
    <glyph glyph-name="SF380000" unicode="&#x255a;" horiz-adv-x="1451" 
 />
    <glyph glyph-name="SF280000" unicode="&#x255b;" horiz-adv-x="1451" 
 />
    <glyph glyph-name="SF270000" unicode="&#x255c;" horiz-adv-x="1451" 
 />
    <glyph glyph-name="SF260000" unicode="&#x255d;" horiz-adv-x="1451" 
 />
    <glyph glyph-name="SF360000" unicode="&#x255e;" horiz-adv-x="1451" 
 />
    <glyph glyph-name="SF370000" unicode="&#x255f;" horiz-adv-x="1451" 
 />
    <glyph glyph-name="SF420000" unicode="&#x2560;" horiz-adv-x="1451" 
 />
    <glyph glyph-name="SF190000" unicode="&#x2561;" horiz-adv-x="1451" 
 />
    <glyph glyph-name="SF200000" unicode="&#x2562;" horiz-adv-x="1451" 
 />
    <glyph glyph-name="SF230000" unicode="&#x2563;" horiz-adv-x="1451" 
 />
    <glyph glyph-name="SF470000" unicode="&#x2564;" horiz-adv-x="1451" 
 />
    <glyph glyph-name="SF480000" unicode="&#x2565;" horiz-adv-x="1451" 
 />
    <glyph glyph-name="SF410000" unicode="&#x2566;" horiz-adv-x="1451" 
 />
    <glyph glyph-name="SF450000" unicode="&#x2567;" horiz-adv-x="1451" 
 />
    <glyph glyph-name="SF460000" unicode="&#x2568;" horiz-adv-x="1451" 
 />
    <glyph glyph-name="SF400000" unicode="&#x2569;" horiz-adv-x="1451" 
 />
    <glyph glyph-name="SF540000" unicode="&#x256a;" horiz-adv-x="1451" 
 />
    <glyph glyph-name="SF530000" unicode="&#x256b;" horiz-adv-x="1451" 
 />
    <glyph glyph-name="SF440000" unicode="&#x256c;" horiz-adv-x="1451" 
 />
    <glyph glyph-name="upblock" unicode="&#x2580;" horiz-adv-x="1451" 
 />
    <glyph glyph-name="dnblock" unicode="&#x2584;" horiz-adv-x="1451" 
 />
    <glyph glyph-name="block" unicode="&#x2588;" horiz-adv-x="1451" 
 />
    <glyph glyph-name="lfblock" unicode="&#x258c;" horiz-adv-x="1451" 
 />
    <glyph glyph-name="rtblock" unicode="&#x2590;" horiz-adv-x="1451" 
 />
    <glyph glyph-name="ltshade" unicode="&#x2591;" horiz-adv-x="1451" 
 />
    <glyph glyph-name="shade" unicode="&#x2592;" horiz-adv-x="1451" 
 />
    <glyph glyph-name="dkshade" unicode="&#x2593;" horiz-adv-x="1493" 
 />
    <glyph glyph-name="filledbox" unicode="&#x25a0;" horiz-adv-x="1237" 
 />
    <glyph glyph-name="H22073" unicode="&#x25a1;" horiz-adv-x="1237" 
 />
    <glyph glyph-name="H18543" unicode="&#x25aa;" horiz-adv-x="726" 
 />
    <glyph glyph-name="H18551" unicode="&#x25ab;" horiz-adv-x="726" 
 />
    <glyph glyph-name="filledrect" unicode="&#x25ac;" horiz-adv-x="2048" 
 />
    <glyph glyph-name="triagup" unicode="&#x25b2;" horiz-adv-x="2027" 
 />
    <glyph glyph-name="triagrt" unicode="&#x25ba;" horiz-adv-x="2027" 
 />
    <glyph glyph-name="triagdn" unicode="&#x25bc;" horiz-adv-x="2027" 
 />
    <glyph glyph-name="triaglf" unicode="&#x25c4;" horiz-adv-x="2027" 
 />
    <glyph glyph-name="circle" unicode="&#x25cb;" horiz-adv-x="1237" 
 />
    <glyph glyph-name="H18533" unicode="&#x25cf;" horiz-adv-x="1237" 
 />
    <glyph glyph-name="invbullet" unicode="&#x25d8;" horiz-adv-x="1237" 
 />
    <glyph glyph-name="invcircle" unicode="&#x25d9;" horiz-adv-x="1237" 
 />
    <glyph glyph-name="openbullet" unicode="&#x25e6;" horiz-adv-x="726" 
 />
    <glyph glyph-name="smileface" unicode="&#x263a;" horiz-adv-x="2091" 
 />
    <glyph glyph-name="invsmileface" unicode="&#x263b;" horiz-adv-x="2155" 
 />
    <glyph glyph-name="sun" unicode="&#x263c;" horiz-adv-x="1877" 
 />
    <glyph glyph-name="female" unicode="&#x2640;" horiz-adv-x="1536" 
 />
    <glyph glyph-name="male" unicode="&#x2642;" horiz-adv-x="1536" 
 />
    <glyph glyph-name="spade" unicode="&#x2660;" horiz-adv-x="1088" 
 />
    <glyph glyph-name="club" unicode="&#x2663;" horiz-adv-x="1344" 
 />
    <glyph glyph-name="heart" unicode="&#x2665;" horiz-adv-x="1216" 
 />
    <glyph glyph-name="diamond" unicode="&#x2666;" horiz-adv-x="1045" 
 />
    <glyph glyph-name="musicalnote" unicode="&#x266a;" horiz-adv-x="1024" 
 />
    <glyph glyph-name="musicalnotedbl" unicode="&#x266b;" horiz-adv-x="1536" 
 />
    <glyph glyph-name="uniF004" unicode="&#xf004;" horiz-adv-x="682" 
 />
    <glyph glyph-name="uniF005" unicode="&#xf005;" horiz-adv-x="682" 
 />
    <glyph glyph-name="afii10023" horiz-adv-x="904" 
 />
  </font>
</defs>
</svg>
